<svg width="184" height="184" viewBox="0 0 184 184" fill="none" xmlns="http://www.w3.org/2000/svg">
<path d="M88.8832 183.963C86.4093 183.89 82.488 183.586 79.8431 183.262C76.3494 182.831 69.8095 181.435 65.6579 180.224C57.0784 177.722 47.0054 172.884 39.6233 167.715C22.9248 156.02 10.6214 139.402 4.31176 120.003C3.3446 117.045 2.82482 114.986 2.0024 110.929C1.21945 107.044 0.719421 104.033 0.554936 102.193C0.51546 101.756 0.423349 100.903 0.357555 100.294C0.19307 98.8707 0.107538 97.1764 0.0285855 93.6223C-0.168796 84.5155 0.633889 77.8309 3.12748 67.8438C3.77883 65.256 5.05524 61.3909 5.98293 59.2068C6.18031 58.7501 6.36453 58.2471 6.40401 58.0817C6.54218 57.4662 7.96332 54.2232 9.13445 51.8604C12.1281 45.8311 14.9177 41.2379 18.339 36.7043C24.2144 28.9278 31.5833 21.8064 39.472 16.2734C43.0117 13.7915 47.1501 11.3891 52.5321 8.68216C54.6704 7.60998 54.8217 7.5438 58.2232 6.20027C62.059 4.69128 62.1906 4.64495 70.3293 2.35499C71.5202 2.01746 72.9413 1.72625 76.1521 1.16369C80.705 0.369482 81.7906 0.223878 83.9815 0.111365C87.3699 -0.0607125 97.5153 -0.0276206 100.529 0.170931C104.753 0.442284 108.148 1.0247 114.082 2.48736C121.885 4.40669 130.715 7.91443 137.373 11.7398C140.314 13.4275 145.459 16.7632 146.486 17.6368C146.683 17.8089 147.328 18.3119 147.907 18.7553C151.19 21.2306 153.644 23.3816 156.789 26.5451C159.993 29.7617 162.506 32.6407 165.178 36.1418C171.066 43.8588 175.349 51.695 178.547 60.6033C182.916 72.7612 184.692 85.8259 183.758 98.7847C183.462 102.842 182.889 106.892 182.047 110.916C180.935 116.244 179.04 122.432 177.264 126.549C177.014 127.131 176.659 127.978 176.481 128.435C176.06 129.481 175.632 130.407 174.547 132.605C168.954 143.889 161.467 153.558 152.012 161.692C149.012 164.28 145.459 166.98 142.538 168.906C132.84 175.306 120.3 180.409 109.378 182.401C102.858 183.593 95.4428 184.155 88.8832 183.963V183.963ZM115.819 156.629C118.201 156.484 118.49 156.278 119.214 154.253C119.346 153.876 119.708 152.969 120.017 152.235C120.319 151.5 120.912 150.057 121.333 149.018C121.747 147.979 122.247 146.761 122.438 146.305C122.629 145.848 123.484 143.737 124.333 141.606C125.886 137.721 127.715 133.227 128.721 130.818C129.313 129.395 130.939 125.338 132.07 122.445C132.465 121.426 133.169 119.685 133.623 118.574C137.064 110.241 141.42 99.3671 141.709 98.414C141.742 98.3148 141.722 98.2552 141.643 98.2287C141.36 98.1162 139.222 98.0434 134.544 97.9905C129.985 97.9309 128.504 97.878 128.116 97.7522C127.958 97.7059 127.905 97.461 127.984 97.1897C128.024 97.0639 128.202 96.5741 128.386 96.091C128.563 95.6145 129.373 93.2716 130.169 90.8956C130.971 88.5196 132.34 84.489 133.208 81.9409C134.077 79.3928 135.518 75.1372 136.419 72.4766C137.314 69.8227 138.571 66.1296 139.202 64.2699C139.841 62.4167 141.045 58.8825 141.88 56.4271C143.788 50.828 145.078 47.0687 146.459 43.0911C147.058 41.3835 147.532 39.9407 147.525 39.8812C147.459 39.5436 145.394 39.4907 132.169 39.4841H121.695L121.556 39.815C121.267 40.4901 120.997 41.2843 120.491 42.9918C120.201 43.9581 119.819 45.1957 119.642 45.7384C119.464 46.2877 118.931 48.0151 118.464 49.5771C117.721 52.0854 117.188 53.8459 116.207 57.0889C116.056 57.5787 115.819 58.2802 115.674 58.6442C115.53 59.0083 115.326 59.723 115.22 60.226C115.109 60.7886 114.944 61.3512 114.806 61.649C114.688 61.927 114.51 62.463 114.411 62.8469C114.043 64.3294 113.181 67.2614 112.799 68.3071C112.437 69.3197 111.714 71.6758 110.424 76.0837C110.279 76.5734 109.904 77.7515 109.595 78.7045L109.029 80.4319L102.345 80.4716C98.6667 80.4981 90.3241 80.5378 83.8105 80.5577L71.9544 80.604L71.8557 80.2797C71.8031 80.101 71.5925 79.4061 71.3886 78.731C71.178 78.0559 70.7043 76.4675 70.3227 75.1902C69.9477 73.9195 69.4806 72.3509 69.2832 71.7155C69.0858 71.0802 68.6976 69.783 68.4213 68.8365C68.1449 67.8901 67.7699 66.6657 67.5923 66.1098C67.0857 64.5214 64.7039 56.619 63.4933 52.4892C63.1841 51.4368 62.7367 49.9609 62.5064 49.2131C62.2761 48.4652 61.6511 46.4135 61.1182 44.6464C60.5918 42.8793 60.026 41.0328 59.8615 40.5364L59.5654 39.6363L53.5387 39.5966C45.9724 39.537 33.3861 39.537 33.3861 39.59C33.3861 39.6694 34.2743 42.3366 35.4915 45.937C37.7679 52.6414 44.3342 71.8479 46.2159 77.3081C50.7951 90.5978 53.1769 97.7522 53.0387 97.7919C52.7821 97.8713 50.5912 97.9375 46.183 97.9905C43.1433 98.0302 40.3602 98.0831 39.9983 98.1096C39.4325 98.1493 39.3404 98.1758 39.3207 98.2751C39.2615 98.5927 41.1826 103.722 42.5972 107.025C43.6302 109.427 49.0779 122.856 51.6307 129.295C52.0123 130.262 52.5123 131.466 52.7295 131.976C52.9532 132.485 53.6045 134.08 54.1769 135.517C54.7493 136.953 55.8415 139.666 56.6113 141.539C57.3745 143.412 58.6509 146.556 59.4404 148.528C60.7168 151.705 62.1182 155.074 62.6314 156.192L62.8156 156.576L72.2965 156.543C80.7905 156.504 83.646 156.457 83.7644 156.338C83.8434 156.259 80.0076 145.259 73.5861 127.177C70.9412 119.725 70.2438 117.74 68.2897 112.121C67.5199 109.904 66.3817 106.641 65.7566 104.874C65.1316 103.106 64.4802 101.233 64.3026 100.704L63.9868 99.7443L64.2631 99.698C65.0987 99.5656 78.1456 99.4995 95.3639 99.5392C112.326 99.5789 116.938 99.6186 117.043 99.7245C117.115 99.7907 116.194 102.484 112.753 112.253C111.865 114.768 110.7 118.071 110.167 119.599C109.628 121.128 108.759 123.604 108.24 125.093C107.713 126.588 106.555 129.878 105.674 132.406C104.786 134.934 103.568 138.389 102.963 140.083C102.358 141.778 101.456 144.306 100.956 145.709C100.456 147.112 99.7589 149.104 99.4102 150.143C99.0549 151.182 98.5614 152.599 98.3114 153.287C97.7324 154.875 97.2587 156.305 97.2916 156.338C97.4035 156.451 103.674 156.623 108.884 156.649C110.227 156.656 112.089 156.669 113.03 156.682C113.97 156.689 115.227 156.662 115.819 156.629V156.629Z" fill="url(#paint0_linear_2634_1606)"/>
<defs>
<linearGradient id="paint0_linear_2634_1606" x1="170" y1="170" x2="52" y2="9.26982e-06" gradientUnits="userSpaceOnUse">
<stop stop-color="#6204AC"/>
<stop offset="0.625471" stop-color="#EC008C"/>
<stop offset="1" stop-color="#EC008C"/>
</linearGradient>
</defs>
</svg>
