<svg xmlns="http://www.w3.org/2000/svg" width="158.143" height="24" viewBox="0 0 158.143 24">
  <g id="Top_Bar" data-name="Top Bar" transform="translate(106 -7)">
    <g id="KADDEX-logo" transform="translate(-106 7)">
      <g id="Group_427" data-name="Group 427">
        <rect id="Rectangle_11" data-name="Rectangle 11" width="3.189" height="23.589" transform="translate(0 0.162)" fill="#fff"/>
        <path id="Path_898" data-name="Path 898" d="M-1324.854,1114.257h-4.319l-10.644,10.271h-4.125v3.3h4.328l10.441,10.074h4.318l-11.975-11.559v-.534Z" transform="translate(1349.045 -1114.145)" fill="#fff"/>
        <path id="Path_900" data-name="Path 900" d="M-1024.477,1113.951h-12.071v3.287h12.071a8.556,8.556,0,0,1,8.424,8.686,8.556,8.556,0,0,1-8.424,8.425h-8.882V1120.8h-3.189v16.837h12.071a11.845,11.845,0,0,0,11.532-12.149,11.845,11.845,0,0,0-11.532-11.534Z" transform="translate(1090.793 -1113.888)" fill="#fff"/>
        <path id="Path_901" data-name="Path 901" d="M-856.439,1113.951H-868.51v3.287h12.071a8.556,8.556,0,0,1,8.424,8.686,8.556,8.556,0,0,1-8.424,8.425h-8.882V1120.8h-3.189v16.837h12.071a11.845,11.845,0,0,0,11.532-12.149,11.844,11.844,0,0,0-11.532-11.534Z" transform="translate(949.618 -1113.888)" fill="#fff"/>
        <path id="Path_902" data-name="Path 902" d="M-698.956,1115.182h-.735v13.269h13.2v-3.244h-9.961v-6.782H-675.9v-3.244h-23.058Z" transform="translate(807.787 -1114.922)" fill="#fff"/>
        <path id="Path_903" data-name="Path 903" d="M-696.459,1213.57H-699.7v8.01H-675.9v-3.244h-20.558Z" transform="translate(807.792 -1197.58)" fill="#fff"/>
        <path id="Path_904" data-name="Path 904" d="M-536.354,1114.57h-4.367l9.863,11.669-10.157,12.018h4.367l7.973-9.434,7.973,9.434h4.367Z" transform="translate(674.478 -1114.408)" fill="#fff"/>
        <path id="Path_905" data-name="Path 905" d="M-448.261,1114.57h-4.367l-7.013,8.294,2.184,2.583Z" transform="translate(606.112 -1114.408)" fill="#fff"/>
        <path id="Path_899" data-name="Path 899" d="M-1147.135,1244h-13.281v2.9h18.155" transform="translate(1194.859 -1223.141)" fill="#ffa900"/>
        <path id="Path_899-2" data-name="Path 899" d="M-1141.834,1113.607l3.46-.049-.028.056,11.752,23.682-4.874-2.9-8.593-17.326Z" transform="translate(1179.247 -1113.558)" fill="#39fffc"/>
        <path id="Path_899-3" data-name="Path 899" d="M-1200.158,1113.636l.028-.056h-3.484l.024.049-11.751,23.682h3.435l10.033-20.217Z" transform="translate(1241.003 -1113.577)" fill="#ed1cb5"/>
      </g>
    </g>
  </g>
</svg>
