<?xml version="1.0" standalone="no"?>
<!DOCTYPE svg PUBLIC "-//W3C//DTD SVG 20010904//EN"
 "http://www.w3.org/TR/2001/REC-SVG-20010904/DTD/svg10.dtd">
<svg version="1.0" xmlns="http://www.w3.org/2000/svg"
 width="1166.000000pt" height="1146.000000pt" viewBox="0 0 1166.000000 1146.000000"
 preserveAspectRatio="xMidYMid meet">

<g transform="translate(0.000000,1146.000000) scale(0.100000,-0.100000)"
fill="#000000" stroke="none">
<path d="M5475 10964 c-441 -32 -693 -71 -1050 -161 -564 -142 -1131 -394
-1615 -716 -605 -402 -1105 -903 -1508 -1508 -251 -377 -475 -838 -617 -1274
-120 -365 -194 -718 -242 -1155 -24 -218 -24 -792 0 -1010 61 -548 170 -1001
352 -1460 73 -185 239 -527 340 -701 825 -1420 2261 -2387 3875 -2608 281 -38
401 -46 735 -46 334 0 454 8 735 46 1614 221 3051 1189 3875 2608 101 174 267
517 340 701 153 385 268 821 324 1230 38 281 46 401 46 735 0 334 -8 454 -46
735 -56 409 -171 845 -324 1230 -73 184 -239 527 -340 701 -656 1130 -1707
1984 -2948 2393 -359 119 -737 198 -1147 242 -135 14 -671 27 -785 18z m450
-528 c39 -17 114 -113 233 -302 l76 -121 78 67 c118 103 273 219 314 236 49
21 123 4 164 -38 54 -53 38 -82 -93 -170 -136 -90 -355 -256 -366 -276 -5 -9
-21 -84 -35 -167 -16 -91 -34 -160 -45 -175 -42 -58 -120 -63 -173 -10 -34 35
-35 58 -11 253 l16 137 -69 102 c-38 57 -111 156 -163 222 -106 135 -124 169
-109 202 22 48 114 68 183 40z m-702 -17 c58 -16 100 -60 185 -197 150 -240
317 -562 328 -633 12 -73 -78 -131 -150 -96 -24 11 -44 37 -80 106 -27 50 -54
97 -60 105 -9 12 -32 12 -151 0 -180 -18 -295 -38 -305 -54 -4 -7 -13 -39 -19
-71 -24 -117 -40 -158 -71 -174 -71 -37 -160 2 -160 70 0 114 153 695 222 843
24 50 64 81 127 98 58 16 86 17 134 3z m-943 -224 c34 -18 46 -50 31 -85 -5
-14 -52 -86 -105 -160 -52 -74 -104 -151 -115 -171 l-20 -36 157 -77 c360
-178 442 -247 378 -323 -60 -71 -133 -70 -252 5 -75 47 -316 172 -371 193 -23
9 -26 4 -77 -101 l-54 -111 59 -107 c32 -59 59 -116 59 -127 0 -31 -36 -82
-69 -100 -40 -20 -94 -19 -119 3 -24 20 -439 652 -453 691 -13 33 -5 62 28
102 53 62 148 87 195 49 14 -11 56 -75 93 -142 38 -68 75 -133 83 -146 14 -21
18 -15 106 160 103 206 211 387 260 436 54 55 132 75 186 47z m3053 -109 c107
-21 214 -65 311 -130 104 -69 176 -148 224 -245 66 -134 45 -251 -45 -251 -80
0 -127 49 -149 155 -21 101 -41 140 -99 194 -107 99 -273 138 -383 91 -146
-63 -240 -286 -186 -442 31 -92 131 -172 253 -204 74 -18 132 -14 189 15 20
10 56 29 80 41 52 27 83 21 129 -25 64 -64 37 -131 -75 -183 -74 -34 -215 -42
-313 -18 -83 21 -249 104 -321 161 -183 147 -240 414 -133 626 91 179 284 259
518 215z m-779 -2231 c42 -14 109 -44 149 -69 103 -62 123 -71 207 -90 238
-56 263 -68 375 -180 49 -50 106 -103 127 -117 22 -14 99 -86 173 -159 122
-119 137 -138 151 -187 15 -51 15 -59 -5 -141 -12 -51 -25 -161 -31 -267 -7
-100 -18 -194 -25 -212 -7 -17 -18 -73 -25 -123 -6 -51 -18 -106 -28 -122 -43
-74 -52 -94 -52 -115 0 -21 -69 -121 -109 -157 -15 -14 -29 -17 -56 -12 -42 8
-43 15 -9 47 35 33 44 51 54 116 5 31 21 74 35 96 27 40 27 66 0 31 -27 -34
-52 -88 -60 -129 -3 -21 -16 -52 -27 -67 -19 -28 -75 -64 -84 -55 -9 9 36 329
50 355 20 38 63 75 126 108 59 31 132 99 156 146 19 37 12 47 -9 14 -35 -52
-95 -100 -173 -136 -99 -46 -139 -89 -154 -169 -15 -73 -38 -119 -64 -127 -11
-4 -59 -7 -106 -8 -95 -2 -128 -16 -185 -76 -41 -44 -126 -106 -184 -136 -59
-29 -99 -30 -174 -4 -31 11 -72 20 -91 20 -139 0 -178 59 -150 230 16 100 12
199 -11 275 -11 36 -12 25 -11 -105 0 -80 -3 -181 -8 -225 -7 -64 -5 -87 7
-117 20 -47 69 -78 124 -78 23 0 77 -11 120 -25 43 -14 93 -25 112 -25 56 0
155 57 246 141 45 42 94 83 107 90 13 8 61 14 113 14 50 1 98 5 108 9 23 11
22 -23 -2 -129 -30 -132 -64 -183 -133 -199 -23 -5 -28 -3 -28 11 0 10 7 27
15 37 8 11 15 24 15 29 0 17 -33 -17 -87 -91 -30 -40 -71 -83 -91 -96 -73 -46
-178 -95 -247 -115 -38 -11 -95 -36 -125 -54 -74 -45 -243 -113 -337 -137 -43
-11 -94 -32 -117 -48 -25 -18 -66 -34 -106 -41 -76 -15 -152 -45 -175 -71 -26
-29 -2 -31 61 -6 58 24 182 52 190 43 3 -2 -14 -24 -36 -48 -56 -61 -93 -136
-130 -264 -18 -60 -40 -119 -49 -129 -9 -10 -40 -30 -70 -43 -30 -13 -74 -38
-98 -55 -25 -16 -83 -48 -130 -70 -80 -38 -89 -40 -147 -33 -33 3 -86 8 -116
9 -30 2 -70 11 -88 21 -25 13 -46 16 -80 11 -34 -4 -56 -1 -77 10 -100 53
-299 73 -348 34 -33 -26 -37 -25 -37 9 0 43 -19 89 -40 96 -23 7 -96 -11 -124
-31 -26 -18 -36 -18 -36 1 0 28 -46 46 -123 48 -59 2 -79 -2 -94 -15 -28 -25
-42 -22 -49 10 -22 88 -77 162 -121 162 -12 0 -38 -14 -58 -31 -20 -18 -37
-30 -38 -28 -2 2 -8 15 -15 29 -16 32 -71 70 -101 70 -12 0 -33 -12 -47 -27
-31 -33 -42 -23 -24 25 13 38 91 157 132 203 24 26 129 109 183 143 79 51 203
183 283 303 13 19 44 56 70 83 26 27 53 58 60 69 14 25 16 87 2 96 -6 4 -10
-7 -10 -26 0 -32 -34 -99 -51 -99 -13 0 -33 44 -65 140 -23 72 -27 101 -27
190 1 97 4 114 41 220 58 163 64 213 60 455 l-3 210 37 78 c73 154 133 201
253 201 42 0 92 -7 124 -18 49 -17 75 -18 230 -13 115 4 213 13 284 27 91 18
119 19 170 11 134 -23 267 -40 380 -50 143 -12 184 -29 253 -103 91 -97 119
-178 110 -328 l-5 -95 15 45 c10 31 14 74 12 135 -3 76 -8 100 -34 155 -70
146 -158 205 -326 221 -117 10 -299 29 -372 38 -27 3 -51 11 -52 16 -2 6 15
21 37 35 41 25 88 71 301 294 62 65 136 134 165 152 133 86 322 110 477 59z
m4051 -1516 c86 -40 135 -121 135 -220 0 -139 -101 -239 -240 -239 -140 0
-240 100 -240 240 0 99 47 175 135 219 56 28 151 28 210 0z m-9520 -60 c86
-40 135 -121 135 -220 0 -139 -101 -239 -240 -239 -140 0 -240 100 -240 240 0
99 47 175 135 219 56 28 151 28 210 0z m6026 -582 c31 -24 36 -46 26 -120 -12
-92 -37 -141 -85 -166 -57 -29 -84 -88 -112 -245 -10 -51 -11 -113 -4 -235 5
-91 8 -254 8 -361 -1 -184 -3 -200 -29 -280 -72 -222 -220 -433 -361 -516 -52
-31 -121 -50 -212 -60 -74 -7 -197 -49 -340 -113 -51 -23 -118 -46 -150 -51
-86 -14 -276 -28 -377 -29 -93 -1 -117 -5 -295 -43 -126 -27 -373 -32 -480 -9
-172 36 -230 62 -345 155 -31 25 -61 46 -67 46 -6 0 -65 56 -132 124 -105 107
-129 137 -180 232 -32 60 -69 122 -82 137 -19 23 -44 83 -44 109 0 4 16 19 35
33 32 25 36 26 57 11 12 -9 35 -16 50 -16 15 0 30 -5 33 -11 13 -20 55 -30 77
-18 18 10 25 7 50 -20 22 -24 35 -30 51 -25 34 10 84 62 107 111 15 31 26 43
38 41 9 -2 15 -11 14 -19 -31 -125 -34 -159 -17 -209 21 -62 60 -93 134 -109
110 -23 213 22 230 101 5 20 7 64 4 97 -2 34 1 61 6 61 5 0 22 -33 37 -72 54
-143 175 -333 241 -378 l35 -24 18 21 c15 19 17 40 12 187 l-5 166 31 0 c17 0
37 7 46 15 19 19 21 19 54 -5 36 -27 159 -35 185 -12 9 8 17 21 17 29 0 19 9
16 47 -17 41 -36 53 -37 91 -5 18 15 39 23 57 22 28 -2 31 1 62 61 1 2 17 -2
36 -9 39 -14 29 -18 131 59 39 30 56 49 56 65 0 13 6 30 13 39 17 22 157 121
162 116 7 -6 -38 -135 -64 -186 -31 -61 -20 -76 13 -20 34 59 59 127 88 237
17 68 22 120 24 246 2 161 5 178 42 272 12 28 26 82 33 120 13 78 22 93 54 93
21 0 158 46 242 81 30 12 33 11 53 -14 52 -65 160 -49 298 45 57 39 45 48 -18
14 -38 -20 -50 -24 -50 -13 0 8 6 20 13 26 8 6 22 29 32 51 14 32 33 48 87 80
39 22 74 40 78 40 17 0 80 -42 81 -53 1 -7 1 -23 0 -37 -2 -24 -1 -24 14 -6
22 29 18 57 -12 83 -14 13 -30 23 -35 23 -15 0 -8 23 14 47 24 25 54 29 79 10z
m-365 -202 c-3 -9 -11 -13 -16 -10 -8 5 -7 11 1 21 14 18 24 11 15 -11z m-61
-5 c7 -11 -21 -82 -38 -92 -33 -21 -108 6 -91 33 6 10 105 69 116 69 4 0 9 -4
13 -10z m-5449 -231 c12 -14 19 -40 22 -82 5 -82 -7 -93 -129 -114 -52 -8 -96
-17 -98 -19 -6 -6 86 -111 216 -246 92 -96 123 -135 128 -161 15 -79 -11 -123
-57 -99 -13 7 -63 58 -113 112 l-90 100 -33 -73 c-19 -39 -54 -121 -79 -181
-25 -60 -50 -117 -56 -127 -41 -66 -107 5 -107 114 0 49 9 74 80 216 44 89 80
167 80 172 0 8 -68 105 -100 142 -4 5 -34 3 -67 -3 -76 -15 -95 -6 -118 55
-20 51 -16 119 8 143 10 9 83 24 214 42 249 35 274 36 299 9z m9502 5 c12 -8
32 -34 45 -57 19 -37 22 -56 22 -167 -1 -127 -14 -209 -71 -445 -29 -118 -49
-163 -79 -171 -13 -3 -111 21 -231 58 -243 74 -247 77 -227 170 7 29 30 136
53 238 52 237 63 269 111 324 34 38 47 46 75 46 45 0 78 -34 94 -97 l11 -47
19 43 c48 105 118 147 178 105z m-4598 -66 c0 -7 -9 -33 -20 -57 -40 -87 -50
-152 -50 -321 0 -194 -1 -196 -95 -265 -22 -16 -53 -40 -68 -54 l-28 -26 -19
25 c-29 37 -26 59 8 57 25 -2 27 1 30 43 2 25 -2 69 -9 97 -12 51 -11 53 14
79 18 18 37 60 58 128 17 55 46 133 65 172 44 90 115 165 114 122z m-2362
-234 c4 -30 -38 -120 -49 -103 -9 15 -1 84 13 112 12 22 32 17 36 -9z m149 6
c30 -18 73 -84 73 -112 0 -20 -90 -195 -110 -213 -16 -15 -22 -15 -75 0 -31 9
-58 22 -61 29 -2 7 11 45 29 86 19 41 40 99 47 127 11 49 42 103 58 103 4 0
21 -9 39 -20z m223 -59 c60 -85 66 -180 19 -282 -45 -97 -56 -105 -122 -90
-66 16 -117 41 -131 63 -8 14 0 37 40 115 29 54 55 112 59 128 20 87 94 123
135 66z m-355 -55 c-16 -60 -46 -117 -53 -97 -8 25 51 172 64 159 2 -3 -3 -30
-11 -62z m635 -66 c41 0 41 -33 1 -112 -55 -107 -64 -119 -137 -177 -80 -64
-89 -60 -88 42 0 82 33 194 65 223 20 18 100 35 127 28 8 -2 22 -4 32 -4z
m240 -220 c5 -102 10 -240 10 -308 0 -121 0 -124 -28 -151 -23 -24 -38 -29
-100 -34 -86 -7 -109 0 -145 43 -24 27 -27 40 -27 100 0 82 14 126 90 285 31
66 68 144 81 173 13 30 36 65 53 79 48 40 54 23 66 -187z m-130 152 c0 -20
-139 -295 -160 -316 -16 -16 -60 4 -71 31 -9 25 -6 31 44 77 34 32 67 75 87
116 31 64 63 99 88 100 6 0 12 -4 12 -8z m1327 -42 c20 -67 14 -95 -19 -96
-17 -1 -36 -11 -49 -27 -17 -22 -24 -25 -40 -17 -15 9 -19 22 -19 68 0 63 10
82 55 106 44 23 58 16 72 -34z m-847 -20 c49 -18 80 -49 80 -80 0 -15 -11 -64
-25 -111 -30 -99 -55 -254 -55 -340 0 -33 5 -103 11 -155 6 -52 8 -98 5 -102
-12 -12 -40 13 -98 89 -68 87 -144 236 -190 369 -30 86 -33 105 -31 198 2 136
10 150 95 154 75 4 160 -6 208 -22z m695 -97 c-8 -99 -17 -118 -45 -100 -15 9
-23 8 -38 -6 -23 -21 -36 -21 -56 -1 -16 15 -21 70 -10 109 5 19 110 81 142
84 11 1 12 -16 7 -86z m-1912 58 c19 -7 25 -19 30 -55 4 -26 20 -78 37 -117
16 -39 30 -77 30 -84 0 -14 -37 -45 -53 -45 -11 0 -32 53 -58 146 -47 173 -47
178 14 155z m1426 -20 c15 -15 17 -29 14 -72 -3 -30 -11 -63 -19 -74 -8 -11
-25 -37 -39 -57 -14 -21 -31 -38 -39 -38 -8 0 -23 18 -34 41 -19 38 -19 44 -6
81 8 22 14 51 14 64 0 12 4 34 10 48 8 21 16 26 45 26 21 0 43 -8 54 -19z
m-1324 -28 c13 -16 26 -42 29 -59 4 -17 18 -60 31 -94 29 -75 31 -93 8 -88
-22 4 -65 79 -98 169 -35 97 -21 130 30 72z m1462 -9 c8 -22 -22 -115 -48
-148 -42 -54 -88 -18 -64 50 8 22 14 53 15 71 0 35 9 41 58 42 21 1 35 -5 39
-15z m170 -62 c-9 -85 -14 -94 -47 -87 -17 4 -37 1 -49 -7 -15 -9 -26 -10 -38
-2 -31 20 -36 38 -23 97 l11 57 76 0 76 0 -6 -58z m-1503 8 c16 -6 28 -20 32
-37 4 -15 14 -58 24 -96 13 -54 14 -69 4 -78 -22 -18 -49 6 -79 68 -43 91 -64
150 -57 157 7 7 34 2 76 -14z m141 11 c3 -5 7 -23 9 -40 6 -52 44 -79 73 -50
18 18 33 1 33 -37 0 -43 -18 -80 -59 -119 -25 -23 -35 -27 -49 -19 -25 15 -80
132 -88 186 -6 44 -5 48 19 57 14 5 28 15 32 20 8 13 22 14 30 2z m1663 -21
c5 -9 13 -34 16 -57 7 -37 5 -42 -24 -64 -17 -13 -49 -39 -70 -57 -61 -52
-102 -27 -114 66 l-7 54 30 -7 c38 -8 85 23 70 46 -18 29 -9 37 40 36 33 -1
52 -6 59 -17z m-239 -89 c22 -16 23 -24 19 -85 -4 -70 -20 -95 -46 -74 -10 8
-20 4 -42 -17 -36 -34 -64 -29 -101 20 -23 30 -26 41 -19 70 10 42 47 76 75
68 11 -3 22 -5 25 -5 23 0 30 5 30 22 0 25 27 26 59 1z m-318 -49 c8 3 22 1
32 -4 14 -7 17 -4 17 17 0 33 26 43 46 19 18 -23 12 -106 -11 -161 -12 -28
-19 -34 -32 -27 -10 4 -41 8 -70 8 -72 1 -91 21 -73 75 7 21 10 44 6 50 -4 6
1 25 10 42 l16 32 22 -28 c13 -16 29 -26 37 -23z m-169 -7 c11 -14 30 -25 43
-25 30 0 25 -24 -17 -74 -21 -25 -37 -36 -52 -34 -19 3 -21 9 -18 58 2 62 10
100 18 100 3 0 15 -11 26 -25z m-3775 -12 c156 -73 318 -405 301 -618 -9 -111
-76 -199 -177 -233 -131 -45 -280 53 -374 248 -69 142 -90 231 -85 354 3 78 9
110 26 142 27 52 92 109 140 123 48 13 122 6 169 -16z m8956 -34 c174 -61 204
-79 235 -139 82 -164 -99 -604 -267 -650 -60 -16 -88 -7 -249 77 -153 80 -178
103 -167 153 9 39 51 90 75 90 11 0 91 -34 179 -76 185 -87 199 -88 256 -22
46 54 78 139 79 210 1 80 -18 96 -198 168 -81 32 -154 64 -162 71 -31 26 -8
134 33 158 27 15 26 15 186 -40z m-8496 -880 c66 -32 165 -130 229 -226 123
-184 138 -348 42 -458 -109 -124 -277 -111 -421 31 -123 122 -197 267 -205
402 -5 97 11 150 60 201 80 81 191 100 295 50z m8461 -52 c3 -32 -8 -57 -65
-155 -110 -190 -220 -351 -249 -364 -33 -16 -36 -14 -253 147 -113 83 -173
135 -177 150 -11 43 43 115 85 115 17 0 87 -41 194 -115 93 -63 170 -115 172
-115 5 0 106 163 165 264 55 97 74 117 105 113 15 -1 21 -11 23 -40z m-729
-436 c23 -14 15 -71 -12 -99 -20 -20 -40 -26 -94 -31 -81 -8 -116 -25 -169
-83 -50 -55 -79 -124 -71 -174 15 -93 110 -184 191 -184 87 0 198 92 231 190
14 42 14 57 4 109 -15 69 -6 99 35 127 59 38 102 -10 100 -113 -1 -97 -53
-194 -164 -305 -107 -108 -182 -148 -276 -148 -48 0 -74 6 -115 28 -122 64
-169 197 -119 340 61 174 260 352 393 352 29 0 58 -4 66 -9z m-7128 -200 c20
-20 29 -39 29 -62 0 -28 -18 -49 -151 -178 l-152 -146 145 -140 c80 -77 149
-150 152 -161 9 -29 -19 -57 -48 -48 -37 11 -87 54 -248 214 -150 149 -179
187 -165 224 3 7 82 84 176 170 191 175 207 182 262 127z m6300 -481 c10 -6
19 -21 19 -34 0 -26 -34 -60 -123 -122 -31 -21 -57 -41 -57 -44 0 -3 52 -78
115 -165 78 -109 115 -168 115 -186 0 -42 -61 -91 -108 -87 -36 3 -41 9 -152
174 l-115 171 -85 -54 c-67 -42 -92 -53 -120 -51 -32 3 -35 6 -35 33 0 34 7
39 220 177 76 50 165 110 196 134 47 36 86 59 107 63 2 1 12 -4 23 -9z m-5395
-255 c19 -15 39 -37 43 -48 14 -38 23 -568 10 -583 -24 -29 -102 -7 -133 38
-11 15 -16 45 -16 88 l0 65 -146 89 -146 88 -58 -26 c-31 -14 -71 -26 -88 -26
-59 0 -118 86 -79 118 6 5 75 37 152 70 77 33 187 83 245 112 120 59 155 61
216 15z m4746 -147 c9 -7 66 -102 128 -211 126 -224 131 -244 71 -284 -41 -27
-92 -30 -113 -5 -9 9 -33 51 -53 92 -21 41 -39 77 -41 79 -3 3 -301 -126 -313
-136 -2 -1 13 -41 33 -87 23 -50 36 -95 34 -112 -6 -57 -114 -98 -150 -56 -22
23 -178 426 -178 456 0 54 106 90 143 49 8 -10 28 -48 43 -85 15 -38 33 -68
40 -68 16 0 274 116 287 129 5 5 -7 39 -28 81 -44 87 -43 116 4 147 38 26 69
29 93 11z m-4174 -164 c241 -99 298 -136 322 -208 15 -47 -1 -104 -41 -141
-29 -29 -34 -30 -127 -30 -92 0 -103 3 -209 46 l-112 45 -35 -77 c-38 -85 -60
-104 -111 -95 -50 10 -85 42 -85 78 0 28 174 381 208 421 8 9 23 17 34 17 10
0 80 -25 156 -56z m3439 -212 c71 -37 80 -87 23 -117 -40 -21 -48 -20 -126 21
-61 32 -75 36 -125 31 -64 -6 -148 -44 -178 -83 -68 -87 -36 -248 59 -297 45
-23 168 -19 220 7 55 28 99 76 111 121 14 51 34 73 74 81 76 14 101 -37 60
-121 -45 -92 -158 -159 -323 -191 -132 -25 -222 -13 -300 40 -132 92 -138 301
-11 409 100 86 231 129 379 124 74 -3 104 -8 137 -25z m-2716 -26 c101 -25
212 -50 246 -57 74 -14 101 -36 83 -69 -11 -21 -17 -22 -74 -16 -51 5 -284 55
-337 71 -13 4 -20 -7 -32 -55 l-15 -60 42 -11 c22 -6 102 -24 176 -41 120 -26
180 -47 180 -64 0 -3 -5 -14 -10 -25 -15 -28 -59 -25 -240 16 -85 19 -160 35
-165 35 -14 0 -49 -130 -38 -140 8 -8 308 -80 334 -80 28 0 89 -21 104 -36 21
-21 19 -31 -9 -49 -22 -15 -35 -14 -178 15 -181 37 -334 74 -389 97 -68 27
-68 30 6 266 65 205 85 247 120 247 7 0 95 -20 196 -44z m1707 -107 c22 -7 57
-44 115 -117 46 -59 122 -150 169 -202 112 -126 117 -136 86 -167 -15 -15 -41
-27 -67 -30 -42 -6 -44 -4 -101 55 l-58 61 -167 -16 -167 -17 -20 -40 c-37
-73 -57 -95 -95 -102 -46 -9 -103 17 -103 47 0 11 19 52 41 91 23 39 80 146
126 237 85 167 107 197 153 204 47 7 57 7 88 -4z m-912 -13 c11 -8 59 -63 105
-121 l84 -107 107 111 c97 102 109 111 143 111 20 0 45 -5 56 -10 40 -22 23
-54 -93 -179 -61 -67 -114 -121 -118 -121 -4 0 -10 -45 -14 -100 -8 -119 -10
-124 -42 -139 -34 -15 -69 -14 -104 4 -34 17 -33 16 -30 141 2 90 1 92 -30
128 -18 20 -65 78 -106 129 -77 96 -91 136 -56 156 25 15 74 13 98 -3z"/>
<path d="M5147 10203 c-19 -35 -120 -374 -113 -381 3 -2 60 3 128 12 68 9 141
16 161 16 23 0 37 5 37 13 0 18 -194 347 -205 347 -2 0 -6 -3 -8 -7z"/>
<path d="M6210 7548 c-36 -5 -68 -12 -72 -16 -4 -4 75 -7 175 -7 165 0 189 -2
252 -24 119 -40 243 -115 400 -241 99 -80 109 -82 40 -11 -69 72 -248 196
-349 241 -143 65 -276 82 -446 58z"/>
<path d="M5540 7094 c53 -11 168 -76 220 -124 l55 -50 -50 7 c-71 11 -275 7
-307 -5 -15 -6 -34 -21 -42 -34 -21 -32 -31 -78 -17 -78 6 0 11 8 11 19 0 26
45 67 81 75 101 20 307 -5 378 -47 50 -29 129 -119 154 -176 53 -120 -5 -354
-116 -469 -84 -87 -161 -105 -259 -59 -78 35 -142 97 -180 174 -33 68 -54 73
-37 8 25 -92 101 -180 201 -231 130 -68 272 -14 363 136 53 87 86 191 92 290
7 125 -14 175 -125 292 -166 174 -302 267 -401 274 -25 1 -35 0 -21 -2z"/>
<path d="M4675 6970 c-75 -12 -105 -43 -120 -123 -8 -42 2 -127 15 -127 4 0
10 34 12 75 3 66 7 78 31 102 24 25 36 28 105 31 97 5 118 -10 158 -105 23
-58 27 -83 28 -168 1 -153 -24 -199 -178 -319 -122 -95 -114 -90 -132 -75 -8
7 -22 26 -30 43 l-14 31 4 -30 c2 -16 7 -39 11 -49 8 -17 5 -19 -23 -13 -19 4
-32 2 -32 -3 0 -17 66 -43 93 -36 37 9 237 161 274 207 52 65 76 141 77 234 0
131 -57 276 -121 308 -36 18 -107 26 -158 17z"/>
<path d="M4724 5946 c-28 -13 -65 -41 -82 -62 -167 -204 -250 -319 -240 -330
3 -2 27 22 54 54 131 158 247 281 276 295 18 8 52 17 75 21 35 5 47 2 63 -14
25 -25 25 -38 0 -136 -24 -94 -73 -201 -129 -281 -72 -103 -58 -95 -152 -83
-70 9 -97 8 -159 -5 -114 -24 -113 -38 3 -29 56 4 97 3 97 -2 0 -5 -12 -18
-27 -28 -17 -10 -20 -15 -8 -11 33 12 115 18 115 9 0 -4 -14 -23 -32 -41 -31
-32 -29 -45 3 -20 141 109 264 280 314 440 34 106 34 189 0 222 -33 33 -101
34 -171 1z"/>
<path d="M5389 5672 c-55 -22 -123 -69 -162 -110 -70 -74 -75 -286 -13 -542
13 -52 27 -115 31 -140 4 -25 11 -52 16 -60 17 -31 8 77 -17 195 -18 87 -27
165 -31 282 -5 152 -4 164 16 207 24 49 99 107 181 140 54 22 148 24 208 3 52
-18 55 -7 5 18 -56 27 -176 30 -234 7z"/>
<path d="M6322 5066 c-50 -64 -72 -151 -92 -355 -11 -108 -26 -239 -34 -291
-24 -149 -19 -218 19 -277 23 -34 28 -23 10 20 -21 51 -19 130 9 281 14 72 30
204 36 294 11 161 28 240 65 312 21 40 14 49 -13 16z"/>
<path d="M4725 3997 c-8 -20 -15 -44 -15 -54 0 -10 -9 -38 -20 -62 -24 -52
-25 -68 -4 -50 23 19 40 57 54 127 15 72 7 92 -15 39z"/>
<path d="M4340 4007 c0 -54 79 -207 108 -207 19 0 15 11 -23 64 -19 27 -42 69
-51 95 -20 53 -34 73 -34 48z"/>
<path d="M10398 5050 c-23 -14 -61 -143 -91 -314 -2 -8 76 -36 103 -36 12 0
21 26 38 108 28 134 29 213 4 235 -21 19 -30 20 -54 7z"/>
<path d="M10612 5038 c-11 -13 -26 -36 -32 -53 -11 -28 -70 -285 -70 -304 0
-10 138 -46 145 -39 13 12 55 255 55 312 0 53 -4 70 -20 86 -26 26 -52 25 -78
-2z"/>
<path d="M1215 4161 c-114 -51 -141 -184 -69 -340 61 -135 165 -190 269 -142
116 52 144 188 71 342 -63 134 -167 188 -271 140z"/>
<path d="M1675 3276 c-42 -19 -90 -74 -105 -120 -42 -131 106 -336 244 -338
74 -2 159 60 181 131 31 103 -49 267 -156 322 -44 22 -120 25 -164 5z"/>
<path d="M3113 1846 c-51 -28 -92 -55 -90 -60 2 -5 43 -34 93 -63 l89 -54 7
53 c9 75 9 178 1 177 -5 -1 -50 -24 -100 -53z"/>
<path d="M3780 1553 c-17 -36 -29 -67 -28 -69 9 -8 159 -62 190 -68 90 -16
134 65 65 118 -30 23 -168 86 -188 86 -5 0 -22 -30 -39 -67z"/>
<path d="M6207 1114 l-47 -107 90 7 c49 4 101 11 115 14 l26 7 -61 85 c-34 47
-65 88 -69 93 -4 4 -28 -41 -54 -99z"/>
</g>
</svg>
