<svg xmlns="http://www.w3.org/2000/svg" xmlns:xlink="http://www.w3.org/1999/xlink" width="220" height="220" viewBox="0 0 220 220">
  <defs>
    <clipPath id="clip-path">
      <rect id="Rectangle_24148" data-name="Rectangle 24148" width="220" height="220" fill="#fff"/>
    </clipPath>
  </defs>
  <g id="KDA" clip-path="url(#clip-path)">
    <path id="Path_143798" data-name="Path 143798" d="M110,220A110,110,0,1,0,0,110,110,110,0,0,0,110,220Z" fill="#0e1821"/>
    <path id="Path_143799" data-name="Path 143799" d="M175.092,172.539H129.974l-.03-.022-.355-.272L73.676,128.863l22.885-18.244,78.154,61.626Z" fill="#4a9079"/>
    <path id="Path_143800" data-name="Path 143800" d="M175.092,48.7H129.974l-.03.022-.355.273L73.676,92.374l22.885,18.245,78.154-61.626Z" fill="#4a9079"/>
    <path id="Path_143801" data-name="Path 143801" d="M73.684,113.369v15.5l.007,43.374v.295l-.03-.022-.348-.273L46.1,150.868l-.067-.052-.392-.3V70.724l.392-.3.067-.052L73.313,48.993l.348-.273.03-.022v.295l-.007,43.374v21Z" fill="#4a9079"/>
  </g>
</svg>
