<svg xmlns="http://www.w3.org/2000/svg" xmlns:xlink="http://www.w3.org/1999/xlink" width="260.781" height="260.78" viewBox="0 0 260.781 260.78">
  <defs>
    <linearGradient id="linear-gradient" x1="0.146" y1="0.854" x2="0.854" y2="0.146" gradientUnits="objectBoundingBox">
      <stop offset="0" stop-color="#4171f7"/>
      <stop offset="1" stop-color="#f74bda"/>
    </linearGradient>
  </defs>
  <g id="Group_112173" data-name="Group 112173" transform="translate(-2680.336 -187.763)">
    <path id="Path_142939" data-name="Path 142939" d="M2924.387,288.673c-.06-.25-.12-.49-.19-.74-.69-2.69-1.5-5.34-2.41-7.96-.08-.25-.16-.49-.25-.74a117.5,117.5,0,0,0-221.56-.18c-1.01,2.86-1.91,5.76-2.68,8.7a117.469,117.469,0,0,0-3.96,30.4c0,3.31.14,6.6.4,9.86q.345,4.035.94,8a115.792,115.792,0,0,0,4.85,19.92q1.3,3.9,2.91,7.68a117.506,117.506,0,0,0,216.63-.12c.07-.17.14-.33.21-.5.99-2.36,1.88-4.75,2.69-7.18.06-.17.11-.34.17-.51a115.824,115.824,0,0,0,4.63-19.29c.41-2.65.72-5.31.94-8,.28-3.26.41-6.55.41-9.86A117.173,117.173,0,0,0,2924.387,288.673Zm-151.26,38.77c.43.09.87.18,1.31.27-.21.03-.43.07-.64.1C2773.567,327.693,2773.347,327.573,2773.127,327.443Z" fill="url(#linear-gradient)"/>
    <path id="Path_142940" data-name="Path 142940" d="M2774.437,327.713c-.21.03-.43.07-.64.1-.23-.12-.45-.24-.67-.37C2773.557,327.533,2774,327.623,2774.437,327.713Z" fill="#2e3191"/>
    <path id="Path_142941" data-name="Path 142941" d="M2793.777,335.223a84.587,84.587,0,0,1-19.62-7.21h-21.69V321.7q6.225,2.175,12.77,3.88a64.393,64.393,0,0,1-11.29-11.82c-.5-.17-.99-.35-1.48-.53-1.69-.61-3.35-1.25-5-1.93-2.19-.88-4.33-1.81-6.44-2.8-1.7-.77-3.36-1.58-5-2.42q-3.405-1.725-6.66-3.62c-1.7-.98-3.37-2-5-3.04-2.29-1.46-4.51-2.97-6.66-4.55l-5-3.84a113.476,113.476,0,0,1-12.73-11.98,100.726,100.726,0,0,1-9.3-11.86c-1.24,2.91-2.38,5.89-3.41,8.91a110.7,110.7,0,0,0,10.03,11.65q1.845,1.875,3.79,3.68v36.58h-13.11v8h13.11v18.88c-.53.34-1.04.69-1.56,1.04a135.028,135.028,0,0,0-10.86,8.18c.99,2.63,2.07,5.22,3.22,7.76a115.977,115.977,0,0,1,10.55-8.26,138.778,138.778,0,0,1,12.32-7.68l2.95-1.6c2.17-1.14,4.39-2.25,6.66-3.31q2.46-1.155,5-2.24,3.27-1.41,6.66-2.7c.82-.31,1.65-.63,2.48-.93h.01c.83-.31,1.67-.61,2.51-.9,1.04-.36,2.08-.71,3.13-1.06.21-.07.43-.14.64-.2-1.02-.33-2.31-.71-3.77-1.09-1.51-.38-3.21-.77-5-1.08a49.713,49.713,0,0,0-6.66-.73v-4.08h67.65C2795.947,335.763,2794.867,335.5,2793.777,335.223Zm-69.41-26.5v19.29h-6.66v-23.47C2719.867,305.993,2722.087,307.393,2724.367,308.723Zm-18.28-12.88q3.2,2.7,6.62,5.2v26.97h-6.62Zm0,40.17h6.62v11.94c-2.26,1.21-4.46,2.47-6.62,3.78Zm11.62,3.966v-3.966h6.66v6.21c-.28.12-.55.25-.83.38-1.97.88-3.92,1.79-5.83,2.75v-5.374m11.66-11.966v-16.46c2.17,1.18,4.4,2.31,6.66,3.38v13.08Zm11.66,0v-10.79c2.12.93,4.26,1.81,6.44,2.64v8.15Z" fill="#fff"/>
    <path id="Path_142942" data-name="Path 142942" d="M2925.487,336.013h9.15v-8h-13.11v-36.58c.97-.9,1.93-1.82,2.86-2.76.31-.3.62-.61.93-.92a110.24,110.24,0,0,0,9.22-10.59c-.08-.29-.18-.58-.28-.87q-1.4-4.1-3.03-8.05a101.251,101.251,0,0,1-8.59,10.81c-.28.31-.56.62-.85.92a114.01,114.01,0,0,1-11.88,11.06l-5,3.84c-2.15,1.58-4.37,3.09-6.66,4.55-1.63,1.04-3.3,2.06-5,3.04q-3.255,1.89-6.66,3.62c-1.64.84-3.3,1.65-5,2.42-2.11.99-4.25,1.92-6.44,2.8-1.65.68-3.31,1.32-5,1.93-2.12.79-7.11,1.76-9.29,2.45,1.06,1.51,5.19,7.29,5.19,7.29,1.09-.36,3.03-.9,4.1-1.27v6.31h-.07c.02.04.05.09.07.14a62.872,62.872,0,0,1,3.61,7.86h19.49v4.08a49.713,49.713,0,0,0-6.66.73c-1.79.31-3.49.7-5,1.08-1.46.38-2.75.76-3.77,1.09.21.06.43.13.64.2,1.05.35,2.09.7,3.13,1.06.82.29,1.64.58,2.45.87l2.55.96q3.39,1.29,6.66,2.7,2.535,1.08,5,2.24c2.27,1.06,4.49,2.17,6.66,3.31l2.95,1.6q6,3.33,11.42,7.06c.3.2.6.41.9.62a114.48,114.48,0,0,1,9.72,7.54c1.05-2.35,2.03-4.75,2.94-7.17.08-.2.15-.4.22-.61-3.12-2.56-6.45-5.05-9.97-7.44-.32-.21-.63-.43-.95-.63-.2-.14-.4-.28-.61-.41v-18.88Zm-43.9-8h-6.44v-8.15c2.18-.83,4.32-1.71,6.44-2.64Zm11.66,0h-6.66v-13.08c2.26-1.07,4.49-2.2,6.66-3.38Zm11.66,17.34c-1.92-.96-3.88-1.88-5.86-2.77-.27-.12-.53-.24-.8-.36v-6.21h6.66Zm0-17.34h-6.66v-19.29c2.28-1.33,4.5-2.73,6.66-4.18Zm11.62,23.72c-2.16-1.31-4.36-2.57-6.62-3.78v-11.94h6.62Zm0-23.72h-6.62v-26.97q3.42-2.505,6.62-5.2Z" fill="#fff"/>
    <rect id="Rectangle_24036" data-name="Rectangle 24036" width="5" height="6.55" transform="translate(2701.087 336.013)" fill="#231f20" opacity="0.4"/>
    <rect id="Rectangle_24037" data-name="Rectangle 24037" width="5" height="6.55" transform="translate(2712.707 336.013)" fill="#231f20" opacity="0.4"/>
    <path id="Path_142943" data-name="Path 142943" d="M2744.8,342.993c-.21.06-.43.13-.64.2-1.05.35-2.09.7-3.13,1.06-.84.29-1.68.59-2.51.9h-.01c-.78-.21-1.62-.42-2.48-.62-2.09-.49-4.37-.96-6.66-1.32-1.68-.26-3.37-.46-5-.57-.28-.01-.56-.03-.83-.04.28-.13.55-.26.83-.38v-6.21h5v4.08a49.713,49.713,0,0,1,6.66.73c1.79.31,3.49.7,5,1.08C2742.487,342.283,2743.777,342.663,2744.8,342.993Z" fill="#231f20" opacity="0.4"/>
    <path id="Path_142944" data-name="Path 142944" d="M2899.047,342.583c-.26.01-.53.03-.8.04-1.63.11-3.32.3-5,.56-2.29.36-4.57.82-6.66,1.32-.89.2-1.74.41-2.55.62-.81-.29-1.63-.58-2.45-.87-1.04-.36-2.08-.71-3.13-1.06-.21-.07-.43-.14-.64-.2,1.02-.33,2.31-.71,3.77-1.09,1.51-.38,3.21-.77,5-1.08a49.713,49.713,0,0,1,6.66-.73v-4.08h5v6.21C2898.517,342.343,2898.777,342.463,2899.047,342.583Z" fill="#231f20" opacity="0.4"/>
    <rect id="Rectangle_24038" data-name="Rectangle 24038" width="5" height="6.54" transform="translate(2904.907 336.013)" fill="#231f20" opacity="0.4"/>
    <rect id="Rectangle_24039" data-name="Rectangle 24039" width="5" height="6.54" transform="translate(2916.527 336.013)" fill="#231f20" opacity="0.4"/>
    <path id="Path_142945" data-name="Path 142945" d="M2934.537,277.163c-.08-.29-.18-.58-.28-.87q-1.4-4.1-3.03-8.05l-.36-.87a130.447,130.447,0,0,0-240.19-.18c-1.24,2.91-2.38,5.89-3.41,8.91a130.994,130.994,0,0,0,1.4,88.01c.99,2.63,2.07,5.22,3.22,7.76a130.442,130.442,0,0,0,237.75-.14c.09-.19.17-.39.26-.58,1.05-2.35,2.03-4.75,2.94-7.17.08-.2.15-.4.22-.61a130.921,130.921,0,0,0,1.48-86.21Zm-6.83,50.85c-.22,2.69-.53,5.35-.94,8a115.824,115.824,0,0,1-4.63,19.29c-.06.17-.11.34-.17.51-.81,2.43-1.7,4.82-2.69,7.18-.07.17-.14.33-.21.5a117.507,117.507,0,0,1-216.63.12q-1.605-3.78-2.91-7.68a115.792,115.792,0,0,1-4.85-19.92q-.6-3.96-.94-8c-.26-3.26-.4-6.55-.4-9.86a117.469,117.469,0,0,1,3.96-30.4c.77-2.94,1.67-5.84,2.68-8.7a117.495,117.495,0,0,1,221.56.18c.09.25.17.49.25.74.91,2.62,1.72,5.27,2.41,7.96.07.25.13.49.19.74a117.173,117.173,0,0,1,3.73,29.48C2928.117,321.463,2927.987,324.753,2927.707,328.013Z" fill="#fff"/>
    <path id="Path_142946" data-name="Path 142946" d="M2773.8,327.813c-.23-.12-.45-.24-.67-.37.43.09.87.18,1.31.27C2774.227,327.743,2774.007,327.783,2773.8,327.813Zm92.47,41.03c-12.1,32.75-43.25,34.89-44.67,35.07-.1.01-.27.03-.51.04v18.28h-20.7v-18.35c-3.6-.54-10.19-1.36-23.65-8.69-13.7-7.48-24.03-22.79-24.03-22.79l19.05-17.26c6.99,9.71,18.33,23.76,38.98,23.76s35.35-16.09,27.63-31.97-22.32-14.8-42.49-19.95-26.82-11.16-36.26-24.68-4.24-32.96-4.24-32.96c3.74-15.3,15.18-24.96,29.02-32.03a49.045,49.045,0,0,1,15.99-4.58v-19h20.7v18.73a59.712,59.712,0,0,1,18.66,5.74c14.42,6.94,27.24,24.2,27.24,24.2l-19.58,18.69c-7.3-13.53-16.2-18.15-20.12-20.29s-8.9-3.74-16.55-3.74-9.97,1.25-16.73,4.1-15.13,13.52-10.5,25.63,17.08,13.35,37.2,17.09,32.21,14.95,33.46,16.37S2875.707,342.323,2866.267,368.843Z" fill="#fff"/>
  </g>
</svg>
