<?xml version="1.0" encoding="iso-8859-1"?>
<!-- Generator: Adobe Illustrator 19.0.0, SVG Export Plug-In . SVG Version: 6.00 Build 0)  -->
<svg version="1.1" id="Layer_1" xmlns="http://www.w3.org/2000/svg" xmlns:xlink="http://www.w3.org/1999/xlink" x="0px" y="0px"
	 viewBox="0 0 297 297" style="enable-background:new 0 0 297 297;" xml:space="preserve">
<g>
	<g>
		<g>
			<g>
				<circle style="fill:#D95459;" cx="148.5" cy="148.5" r="148.5"/>
			</g>
		</g>
	</g>
	<g>
		<rect x="115.5" y="195" style="fill:#262626;" width="66" height="33"/>
	</g>
	<g>
		<path style="fill:#32373B;" d="M58.083,198h180.833c4.741,0,8.583-3.843,8.583-8.583V74.584c0-4.741-3.843-8.584-8.583-8.584
			H58.083c-4.741,0-8.583,3.843-8.583,8.584v114.833C49.5,194.157,53.343,198,58.083,198z"/>
	</g>
	<g>
		<rect x="60.5" y="79.5" style="fill:#D0D5D9;" width="176" height="105"/>
	</g>
	<g>
		<path style="fill:#32373B;" d="M107.25,238.75h82.5c4.556,0,8.25-3.694,8.25-8.25l0,0c0-4.556-3.694-8.25-8.25-8.25h-82.5
			c-4.556,0-8.25,3.694-8.25,8.25l0,0C99,235.056,102.694,238.75,107.25,238.75z"/>
	</g>
</g>
<g>
</g>
<g>
</g>
<g>
</g>
<g>
</g>
<g>
</g>
<g>
</g>
<g>
</g>
<g>
</g>
<g>
</g>
<g>
</g>
<g>
</g>
<g>
</g>
<g>
</g>
<g>
</g>
<g>
</g>
</svg>
