<svg width="168" height="27" viewBox="0 0 168 27" fill="none" xmlns="http://www.w3.org/2000/svg">
<path d="M18.9824 0H21.5723V2.61523V5.20508H18.9824H16.3672H13.7773H11.1621H8.57227H5.98242V7.82031V10.4102H8.57227H11.1621H13.7773H16.3672H18.9824V13H16.3672V15.6152H13.7773H11.1621H8.57227H5.98242V18.2051V20.7949H8.57227H11.1621H13.7773H16.3672H18.9824H21.5723V23.4102V26H18.9824H16.3672H13.7773H11.1621H8.57227H5.98242H3.36719H0.777344V23.4102V20.7949V18.2051V15.6152V13V10.4102V7.82031V5.20508V2.61523V0H3.36719H5.98242H8.57227H11.1621H13.7773H16.3672H18.9824ZM43.3574 2.61523H45.9473V5.20508V7.82031H43.3574H40.7422V5.20508H38.1523H35.5625H32.9473H30.3574V7.82031V10.4102V13V15.6152V18.2051V20.7949H32.9473H35.5625H38.1523H40.7422V18.2051H43.3574H45.9473V20.7949V23.4102H43.3574V26H40.7422H38.1523H35.5625H32.9473H30.3574H27.7676V23.4102H25.1523V20.7949V18.2051V15.6152V13V10.4102V7.82031V5.20508V2.61523H27.7676V0H30.3574H32.9473H35.5625H38.1523H40.7422H43.3574V2.61523ZM59.9121 10.4355V13.0254V15.6152H62.5273V18.2305H65.1172V20.8203H67.707V23.4355H70.3223V26.0254H67.707H65.1172H62.5273V23.4355H59.9121V20.8203H57.3223V18.2305H54.7324V20.8203V23.4355V26.0254H52.1172H49.5273V23.4355V20.8203V18.2305V15.6152V13.0254V10.4355V7.82031V5.23047V2.64062V0.0253906H52.1172H54.7324V2.64062V5.23047V7.82031H57.3223V5.23047H59.9121V2.64062H62.5273V0.0253906H65.1172H67.707H70.3223V2.64062H67.707V5.23047H65.1172V7.82031H62.5273V10.4355H59.9121ZM92.1074 2.64062H94.6973V5.23047V7.82031V10.4355V13.0254V15.6152V18.2305V20.8203V23.4355H92.1074V26.0254H89.5176H86.9023H84.3125H81.6973H79.1074H76.5176V23.4355H73.9023V20.8203V18.2305V15.6152V13.0254V10.4355V7.82031V5.23047V2.64062H76.5176V0.0253906H79.1074H81.6973H84.3125H86.9023H89.5176H92.1074V2.64062ZM89.5176 7.82031V5.23047H86.9023H84.3125H81.6973H79.1074V7.82031V10.4355V13.0254V15.6152V18.2305V20.8203H81.6973H84.3125H86.9023H89.5176V18.2305V15.6152V13.0254V10.4355V7.82031Z" fill="white"/>
<path d="M116.482 5.20508H119.072V7.82031V10.4102V13V15.6152V18.2051V20.7949H116.482V23.4102H113.867V26H111.277H108.688H106.072H103.482H100.893H98.2773V23.4102V20.7949V18.2051V15.6152V13V10.4102V7.82031V5.20508V2.61523V0H100.893H103.482H106.072H108.688H111.277H113.867V2.61523H116.482V5.20508ZM113.867 7.82031V5.20508H111.277H108.688H106.072H103.482V7.82031V10.4102V13V15.6152V18.2051V20.7949H106.072H108.688H111.277H113.867V18.2051V15.6152V13V10.4102V7.82031ZM140.857 0H143.447V2.61523V5.20508H140.857H138.242H135.652H133.037H130.447H127.857V7.82031V10.4102H130.447H133.037H135.652H138.242H140.857V13H138.242V15.6152H135.652H133.037H130.447H127.857V18.2051V20.7949H130.447H133.037H135.652H138.242H140.857H143.447V23.4102V26H140.857H138.242H135.652H133.037H130.447H127.857H125.242H122.652V23.4102V20.7949V18.2051V15.6152V13V10.4102V7.82031V5.20508V2.61523V0H125.242H127.857H130.447H133.037H135.652H138.242H140.857ZM165.232 0.0253906H167.822V2.64062V5.23047V7.82031H165.232V10.4355H162.643V13.0254H160.027V15.6152H162.643V18.2305H165.232V20.8203H167.822V23.4355V26.0254H165.232H162.643V23.4355H160.027V20.8203H157.438H154.822V23.4355H152.232V26.0254H149.643H147.027V23.4355V20.8203H149.643V18.2305H152.232V15.6152H154.822V13.0254H152.232V10.4355H149.643V7.82031H147.027V5.23047V2.64062V0.0253906H149.643H152.232V2.64062V5.23047H154.822V7.82031H157.438H160.027V5.23047H162.643V2.64062V0.0253906H165.232Z" fill="#FF00B8"/>
</svg>
