<svg width="34" height="20" viewBox="0 0 34 20" fill="none" xmlns="http://www.w3.org/2000/svg">
<path fill-rule="evenodd" clip-rule="evenodd" d="M24.5619 1.66967C24.851 2.24367 25.1153 2.55039 25.4656 2.71843C25.6564 2.81001 25.6814 2.81473 26.1736 2.85209C28.0908 2.99769 30.6622 3.59403 31.0851 3.99113C31.1788 4.07909 31.2681 4.36285 31.3724 4.90366C31.6546 6.36743 31.8983 8.72915 32.1486 12.424C32.2218 13.5052 32.1938 13.8358 31.9754 14.465C31.7934 14.9895 31.5827 15.3151 31.1253 15.7786C30.684 16.2257 30.1378 16.5583 29.6106 16.7007C29.4938 16.7322 29.3385 16.7747 29.2655 16.7951L28.8938 16.8988C28.7624 16.9354 27.6454 17.2574 26.4116 17.6144C25.1778 17.9715 24.1325 18.2728 24.0887 18.2841C24.0449 18.2954 23.801 18.3663 23.5467 18.4417L23.0844 18.5787H16.8082H10.532L9.17356 18.1893C7.678 17.7607 7.49937 17.7089 7.32399 17.6535C7.25829 17.6327 6.44808 17.3975 5.52354 17.1308C4.59903 16.8641 3.76498 16.6164 3.67013 16.5803C2.93657 16.3014 2.23362 15.6741 1.8499 14.956C1.52684 14.3514 1.37693 13.6799 1.4163 13.0139C1.53276 11.0436 1.7663 8.27928 1.93631 6.85924C2.14057 5.15288 2.33232 4.17006 2.48985 4.02194C2.92635 3.61157 5.52078 2.99624 7.42007 2.85263C7.96169 2.81168 8.08545 2.77963 8.32096 2.61942C8.57252 2.4483 8.84182 2.08491 9.07923 1.59624L9.16716 1.41522L16.8005 1.41535L24.4338 1.41546L24.5619 1.66967ZM8.48486 4.52622C8.5383 4.46312 8.64245 4.3831 8.71625 4.3484L8.85047 4.28527H16.8014H24.7524L24.8852 4.34783C24.9582 4.38224 25.0612 4.45894 25.1141 4.51823C25.1279 4.53366 25.1406 4.54587 25.1524 4.55717C25.1613 4.56569 25.1697 4.5737 25.1775 4.58218C25.2908 4.70461 25.2976 4.92565 25.2929 8.23431C25.2926 8.45489 25.2923 8.68923 25.2919 8.93814L25.2903 10.0516L25.2834 15.213L25.226 15.3203C25.1656 15.4332 25.045 15.5573 24.9117 15.644C24.8335 15.6948 24.6841 15.6959 16.8545 15.703C9.50429 15.7098 8.86794 15.7069 8.76141 15.6662C8.61343 15.6098 8.48258 15.4932 8.39152 15.3367L8.31952 15.213L8.31262 10.0516L8.31102 8.95073C8.30495 4.96717 8.30458 4.72723 8.42338 4.59188C8.431 4.5832 8.4391 4.57496 8.44772 4.56618C8.44987 4.564 8.45206 4.56177 8.45427 4.55951C8.46384 4.5497 8.47403 4.53901 8.48486 4.52622ZM4.18499 7.45503C4.27966 7.31343 4.382 7.23443 4.54795 7.17484C4.85096 7.06601 5.24031 7.22171 5.39341 7.51296C5.44486 7.61084 5.45311 7.67743 5.46524 8.09287L5.47894 8.56218L5.94352 8.57602C6.35477 8.58827 6.42069 8.59661 6.51759 8.64859C6.91779 8.86326 7.00715 9.4547 6.68807 9.77703C6.50583 9.96113 6.43123 9.98219 5.92531 9.99224L5.46904 10.0013L5.46073 10.4617C5.45372 10.8487 5.44435 10.9385 5.40203 11.0246C5.13337 11.5711 4.32158 11.5362 4.11159 10.9692C4.06709 10.849 4.05865 10.7602 4.05865 10.4116V9.99693H3.65189C3.17951 9.99693 3.0624 9.96821 2.88247 9.80822C2.71723 9.66128 2.64298 9.47696 2.65681 9.24805C2.67452 8.95514 2.80426 8.76034 3.06256 8.63882C3.18497 8.58122 3.23106 8.5761 3.62726 8.57586L4.05865 8.57559L4.05881 8.16662C4.05897 7.7172 4.07676 7.61693 4.18499 7.45503ZM29.7619 8.36228C29.3838 7.98031 29.5264 7.35698 30.0335 7.17484C30.3365 7.06601 30.7257 7.22163 30.8791 7.51296C30.9259 7.60183 30.9373 7.66831 30.9373 7.85151C30.9373 8.0347 30.9259 8.10118 30.8791 8.19005C30.6661 8.59441 30.081 8.6846 29.7619 8.36228ZM26.8453 8.87879C26.942 8.73486 27.0223 8.66934 27.1698 8.61397C27.3166 8.55888 27.6144 8.57752 27.7556 8.65062C27.9738 8.76363 28.1199 9.01857 28.1199 9.28626C28.1199 9.8581 27.4966 10.1877 27.023 9.86633C26.7014 9.64814 26.6226 9.21031 26.8453 8.87879Z" fill="#0C0A26"/>
<path fill-rule="evenodd" clip-rule="evenodd" d="M8.67855 0.0383339C8.52651 0.092211 8.31634 0.230002 8.20954 0.345855C8.07882 0.487614 7.89421 0.782449 7.73105 1.11L7.58142 1.41036L7.36642 1.42771C6.51666 1.49639 5.36014 1.6647 4.48341 1.84731C3.47397 2.05756 2.68652 2.30697 2.11007 2.59901C1.46664 2.92498 1.21178 3.2136 1.03588 3.81542C0.914553 4.23053 0.747703 5.04735 0.684387 5.536C0.669414 5.65166 0.652477 5.77647 0.646769 5.81335C0.466538 6.97561 0.248238 9.29715 0.0637333 12.0139C-0.0137854 13.1556 -0.01798 13.4464 0.0369999 13.8701C0.256707 15.5632 1.30074 17.0251 2.81519 17.7602C2.98074 17.8406 3.22373 17.942 3.35514 17.9856C3.53575 18.0455 5.65742 18.6607 5.98334 18.7476C6.01255 18.7554 6.1798 18.8043 6.35501 18.8562C6.53022 18.9082 7.49039 19.1868 8.48874 19.4754L10.3039 20H16.8038H23.3037L24.9838 19.5164C25.9078 19.2505 26.7594 19.0033 26.8762 18.9671C26.993 18.931 27.7673 18.7071 28.5968 18.4697C30.2834 17.9869 30.362 17.962 30.7141 17.7983C32.0409 17.1814 33.0485 15.978 33.4318 14.5521C33.6125 13.8799 33.6372 13.4097 33.5552 12.2094C33.2511 7.76116 32.9429 5.11375 32.5844 3.87173C32.3888 3.19418 32.1436 2.91857 31.4261 2.57002C30.4124 2.07759 28.5261 1.66191 26.4158 1.46596L26.0616 1.43305L26.002 1.33699C25.9692 1.28413 25.8851 1.13229 25.8152 0.99954C25.5379 0.473159 25.3401 0.239843 25.042 0.0874643L24.8852 0.0072791L16.8413 0.00175479C9.59139 -0.00320652 8.78564 0.000413444 8.67855 0.0383339ZM24.5619 1.66967C24.851 2.24367 25.1153 2.55039 25.4656 2.71843C25.6564 2.81001 25.6814 2.81473 26.1736 2.85209C28.0908 2.99769 30.6622 3.59403 31.0851 3.99113C31.1788 4.07909 31.2681 4.36285 31.3724 4.90366C31.6546 6.36743 31.8983 8.72915 32.1486 12.424C32.2218 13.5052 32.1938 13.8358 31.9754 14.465C31.7934 14.9895 31.5827 15.3151 31.1253 15.7786C30.684 16.2257 30.1378 16.5583 29.6106 16.7007C29.4938 16.7322 29.3385 16.7747 29.2655 16.7951L28.8938 16.8988C28.7624 16.9354 27.6454 17.2574 26.4116 17.6144C25.1778 17.9715 24.1325 18.2728 24.0887 18.2841C24.0449 18.2954 23.801 18.3663 23.5467 18.4417L23.0844 18.5787H16.8082H10.532L9.17356 18.1893C7.678 17.7607 7.49937 17.7089 7.32399 17.6535C7.25829 17.6327 6.44808 17.3975 5.52354 17.1308C4.59903 16.8641 3.76498 16.6164 3.67013 16.5803C2.93657 16.3014 2.23362 15.6741 1.8499 14.956C1.52684 14.3514 1.37693 13.6799 1.4163 13.0139C1.53276 11.0436 1.7663 8.27928 1.93631 6.85924C2.14057 5.15288 2.33232 4.17006 2.48985 4.02194C2.92635 3.61157 5.52078 2.99624 7.42007 2.85263C7.96169 2.81168 8.08545 2.77963 8.32096 2.61942C8.57252 2.4483 8.84182 2.08491 9.07923 1.59624L9.16716 1.41522L16.8005 1.41535L24.4338 1.41546L24.5619 1.66967Z" fill="#0C0A26"/>
<path fill-rule="evenodd" clip-rule="evenodd" d="M8.71625 4.3484C8.64245 4.3831 8.5383 4.46312 8.48486 4.52622C8.47403 4.53901 8.46384 4.5497 8.45427 4.55951L8.44772 4.56618C8.4391 4.57496 8.431 4.5832 8.42338 4.59188C8.30458 4.72723 8.30495 4.96717 8.31102 8.95073L8.31262 10.0516L8.31952 15.213L8.39152 15.3367C8.48258 15.4932 8.61343 15.6098 8.76141 15.6662C8.86794 15.7069 9.50429 15.7098 16.8545 15.703C24.6841 15.6959 24.8335 15.6948 24.9117 15.644C25.045 15.5573 25.1656 15.4332 25.226 15.3203L25.2834 15.213L25.2903 10.0516L25.2919 8.93814L25.2929 8.23431C25.2976 4.92565 25.2908 4.70461 25.1775 4.58218C25.1697 4.5737 25.1613 4.56569 25.1524 4.55717C25.1406 4.54587 25.1279 4.53366 25.1141 4.51823C25.0612 4.45894 24.9582 4.38224 24.8852 4.34783L24.7524 4.28527H16.8014H8.85047L8.71625 4.3484ZM23.8896 14.2878V9.99693V5.70608H16.8014H9.71327V9.99693V14.2878H16.8014H23.8896Z" fill="#0C0A26"/>
</svg>
