<svg width="425" height="60" viewBox="0 0 425 60" fill="none" xmlns="http://www.w3.org/2000/svg">
<mask id="path-1-inside-1_599_6939" fill="white">
<path fill-rule="evenodd" clip-rule="evenodd" d="M20.7048 0H403.205V6.1764H408.653V15H419.551V22.9413H425V37.059H419.551V45.0002H408.653V52.9411H403.205V60H20.7048V52.9411H16.3459V45.0002H5.44849V37.059H0V22.9413H5.44849V15H16.3459V6.1764H20.7048V0Z"/>
</mask>
<path fill-rule="evenodd" clip-rule="evenodd" d="M20.7048 0H403.205V6.1764H408.653V15H419.551V22.9413H425V37.059H419.551V45.0002H408.653V52.9411H403.205V60H20.7048V52.9411H16.3459V45.0002H5.44849V37.059H0V22.9413H5.44849V15H16.3459V6.1764H20.7048V0Z" fill="#F2248D"/>
<path d="M403.205 0H406.205V-3H403.205V0ZM20.7048 0V-3H17.7048V0H20.7048ZM403.205 6.1764H400.205V9.1764H403.205V6.1764ZM408.653 6.1764H411.653V3.1764H408.653V6.1764ZM408.653 15H405.653V18H408.653V15ZM419.551 15H422.551V12H419.551V15ZM419.551 22.9413H416.551V25.9413H419.551V22.9413ZM425 22.9413H428V19.9413H425V22.9413ZM425 37.059V40.059H428V37.059H425ZM419.551 37.059V34.059H416.551V37.059H419.551ZM419.551 45.0002V48.0002H422.551V45.0002H419.551ZM408.653 45.0002V42.0002H405.653V45.0002H408.653ZM408.653 52.9411V55.9411H411.653V52.9411H408.653ZM403.205 52.9411V49.9411H400.205V52.9411H403.205ZM403.205 60V63H406.205V60H403.205ZM20.7048 60H17.7048V63H20.7048V60ZM20.7048 52.9411H23.7048V49.9411H20.7048V52.9411ZM16.3459 52.9411H13.3459V55.9411H16.3459V52.9411ZM16.3459 45.0002H19.3459V42.0002H16.3459V45.0002ZM5.44849 45.0002H2.44849V48.0002H5.44849V45.0002ZM5.44849 37.059H8.44849V34.059H5.44849V37.059ZM0 37.059H-3V40.059H0V37.059ZM0 22.9413V19.9413H-3V22.9413H0ZM5.44849 22.9413V25.9413H8.44849V22.9413H5.44849ZM5.44849 15V12H2.44849V15H5.44849ZM16.3459 15V18H19.3459V15H16.3459ZM16.3459 6.1764V3.1764H13.3459V6.1764H16.3459ZM20.7048 6.1764V9.1764H23.7048V6.1764H20.7048ZM403.205 -3H20.7048V3H403.205V-3ZM406.205 6.1764V0H400.205V6.1764H406.205ZM408.653 3.1764H403.205V9.1764H408.653V3.1764ZM411.653 15V6.1764H405.653V15H411.653ZM419.551 12H408.653V18H419.551V12ZM422.551 22.9413V15H416.551V22.9413H422.551ZM425 19.9413H419.551V25.9413H425V19.9413ZM428 37.059V22.9413H422V37.059H428ZM419.551 40.059H425V34.059H419.551V40.059ZM422.551 45.0002V37.059H416.551V45.0002H422.551ZM408.653 48.0002H419.551V42.0002H408.653V48.0002ZM411.653 52.9411V45.0002H405.653V52.9411H411.653ZM403.205 55.9411H408.653V49.9411H403.205V55.9411ZM406.205 60V52.9411H400.205V60H406.205ZM20.7048 63H403.205V57H20.7048V63ZM17.7048 52.9411V60H23.7048V52.9411H17.7048ZM16.3459 55.9411H20.7048V49.9411H16.3459V55.9411ZM13.3459 45.0002V52.9411H19.3459V45.0002H13.3459ZM5.44849 48.0002H16.3459V42.0002H5.44849V48.0002ZM2.44849 37.059V45.0002H8.44849V37.059H2.44849ZM0 40.059H5.44849V34.059H0V40.059ZM-3 22.9413V37.059H3V22.9413H-3ZM5.44849 19.9413H0V25.9413H5.44849V19.9413ZM2.44849 15V22.9413H8.44849V15H2.44849ZM16.3459 12H5.44849V18H16.3459V12ZM13.3459 6.1764V15H19.3459V6.1764H13.3459ZM20.7048 3.1764H16.3459V9.1764H20.7048V3.1764ZM17.7048 0V6.1764H23.7048V0H17.7048Z" fill="#F2248D" mask="url(#path-1-inside-1_599_6939)"/>
</svg>
