<svg width="55" height="158" viewBox="0 0 55 158" fill="none" xmlns="http://www.w3.org/2000/svg">
<g opacity="0.3">
<path d="M28.7403 64.142H25.845C23.2876 64.142 21.2065 62.0607 21.2065 59.5044V54.7078C21.2065 54.1447 21.6633 53.6882 22.2261 53.6882C22.7891 53.6882 23.2454 54.1447 23.2454 54.7078V59.5044C23.2454 60.9379 24.4118 62.1032 25.845 62.1032H28.7403C30.1738 62.1032 31.34 60.9379 31.34 59.5044V54.7157C31.34 54.1502 31.7962 53.6962 32.3593 53.6962C32.922 53.6962 33.3783 54.1502 33.3783 54.7157V59.5044C33.3783 62.0607 31.2977 64.142 28.7403 64.142Z" fill="white"/>
<path d="M39.2998 55.735H15.2853C14.8875 55.735 14.526 55.5014 14.3594 55.1404L9.09334 43.6964C9.03184 43.5638 9 43.4178 9 43.2718V19.5666C9 19.0038 9.45624 18.5473 10.0193 18.5473H24.2798C24.8422 18.5473 25.2988 19.0038 25.2988 19.5666C25.2988 20.1293 24.8422 20.5858 24.2795 20.5858H11.0385V43.0461L15.9384 53.6962H38.647L43.5466 43.0461V20.5858H30.3056C29.7426 20.5858 29.2864 20.1293 29.2864 19.5666C29.2864 19.0038 29.7426 18.5473 30.3056 18.5473H44.5661C45.1289 18.5473 45.5854 19.0038 45.5854 19.5666V43.2718C45.5854 43.4178 45.5536 43.5638 45.4921 43.6964L40.2258 55.1404C40.0594 55.5014 39.6979 55.735 39.2998 55.735Z" fill="white"/>
<path d="M39.7459 20.5859C39.1829 20.5859 38.7267 20.1294 38.7267 19.5666V2.03855H15.8587V19.5666C15.8587 20.1294 15.4025 20.5859 14.8395 20.5859C14.2764 20.5859 13.8202 20.1294 13.8202 19.5666V1.01927C13.8202 0.456518 14.2764 0 14.8395 0H39.7459C40.3087 0 40.7652 0.456518 40.7652 1.01927V19.5666C40.7652 20.1294 40.3087 20.5859 39.7459 20.5859Z" fill="white"/>
<path d="M27.2928 8.86601C26.7298 8.86601 26.2736 8.40949 26.2736 7.84673V1.01927C26.2736 0.456518 26.7298 0 27.2928 0C27.8556 0 28.3118 0.456518 28.3118 1.01927V7.84673C28.3118 8.40949 27.8556 8.86601 27.2928 8.86601Z" fill="white"/>
<path d="M20.9658 8.86601C20.4031 8.86601 19.9465 8.40949 19.9465 7.84673V1.01927C19.9465 0.456518 20.4031 0 20.9658 0C21.5288 0 21.9854 0.456518 21.9854 1.01927V7.84673C21.9854 8.40949 21.5288 8.86601 20.9658 8.86601Z" fill="white"/>
<path d="M33.6193 8.86601C33.0568 8.86601 32.6 8.40949 32.6 7.84673V1.01927C32.6 0.456518 33.0565 0 33.6193 0C34.1826 0 34.6385 0.456518 34.6385 1.01927L34.6388 7.84673C34.6388 8.40949 34.1823 8.86601 33.6193 8.86601Z" fill="white"/>
<path d="M25.2993 53.6962H29.286V15.4785C29.286 14.3797 28.3917 13.485 27.2928 13.485H27.2925C26.1936 13.485 25.2993 14.3797 25.2993 15.4785V53.6962ZM30.3056 55.7351H24.2797C23.7167 55.7351 23.2604 55.2783 23.2604 54.7158V15.4785C23.2604 13.2569 25.0692 11.4465 27.2925 11.4465C29.5161 11.4465 31.3249 13.2569 31.3249 15.4785V54.7158C31.3249 55.2783 30.8681 55.7351 30.3056 55.7351Z" fill="white"/>
<line x1="27.1313" y1="63.6055" x2="27.1313" y2="221.605" stroke="white" stroke-width="2"/>
<path d="M43.4963 88.4785L45.0766 88.4785C46.4725 88.4785 47.6084 89.6146 47.6084 91.0099L47.6084 93.628C47.6084 93.9353 47.3591 94.1844 47.0519 94.1844C46.7446 94.1844 46.4956 93.9353 46.4956 93.628L46.4956 91.0099C46.4956 90.2274 45.8589 89.5914 45.0766 89.5914L43.4963 89.5914C42.7138 89.5914 42.0773 90.2274 42.0773 91.0099L42.0773 93.6236C42.0773 93.9323 41.8283 94.1801 41.521 94.1801C41.2138 94.1801 40.9648 93.9323 40.9648 93.6236L40.9648 91.0099C40.9648 89.6146 42.1004 88.4785 43.4963 88.4785Z" fill="white"/>
<path d="M37.7327 93.0672L50.8404 93.0672C51.0575 93.0672 51.2548 93.1947 51.3458 93.3917L54.2201 99.6381C54.2537 99.7105 54.2711 99.7902 54.2711 99.8699L54.2711 112.809C54.2711 113.116 54.022 113.365 53.7147 113.365L45.931 113.365C45.624 113.365 45.3748 113.116 45.3748 112.809C45.3748 112.502 45.624 112.252 45.9311 112.252L53.1584 112.252L53.1584 99.9931L50.4839 94.18L38.089 94.18L35.4147 99.9931L35.4147 112.252L42.6419 112.252C42.9492 112.252 43.1983 112.502 43.1983 112.809C43.1983 113.116 42.9492 113.365 42.6419 113.365L34.8582 113.365C34.551 113.365 34.3019 113.116 34.3019 112.809L34.3019 99.8699C34.3019 99.7902 34.3192 99.7105 34.3528 99.6381L37.2273 93.3917C37.3181 93.1947 37.5154 93.0672 37.7327 93.0672Z" fill="white"/>
<path d="M37.4891 112.253C37.7964 112.253 38.0455 112.502 38.0455 112.809L38.0455 122.376L50.5273 122.376L50.5273 112.809C50.5273 112.502 50.7764 112.253 51.0837 112.253C51.391 112.253 51.64 112.502 51.64 112.809L51.64 122.932C51.64 123.24 51.391 123.489 51.0837 123.489L37.4891 123.489C37.182 123.489 36.9328 123.24 36.9328 122.932L36.9328 112.809C36.9328 112.502 37.182 112.253 37.4891 112.253Z" fill="white"/>
<path d="M44.2863 118.649C44.5936 118.649 44.8427 118.899 44.8427 119.206L44.8427 122.932C44.8427 123.24 44.5936 123.489 44.2863 123.489C43.9791 123.489 43.7301 123.24 43.7301 122.932L43.7301 119.206C43.7301 118.899 43.9791 118.649 44.2863 118.649Z" fill="white"/>
<path d="M47.7398 118.649C48.047 118.649 48.2961 118.899 48.2961 119.206L48.2961 122.932C48.2961 123.24 48.047 123.489 47.7398 123.489C47.4325 123.489 47.1833 123.24 47.1833 122.932L47.1833 119.206C47.1833 118.899 47.4325 118.649 47.7398 118.649Z" fill="white"/>
<path d="M40.8332 118.649C41.1403 118.649 41.3896 118.899 41.3896 119.206L41.3896 122.932C41.3896 123.24 41.1404 123.489 40.8332 123.489C40.5258 123.489 40.2769 123.24 40.2769 122.932L40.2767 119.206C40.2767 118.899 40.5259 118.649 40.8332 118.649Z" fill="white"/>
<path d="M45.3744 94.18L43.1983 94.18L43.1983 115.04C43.1983 115.64 43.6865 116.128 44.2863 116.128L44.2864 116.128C44.8862 116.128 45.3744 115.64 45.3744 115.04L45.3744 94.18ZM42.6418 93.0672L45.9309 93.0672C46.2382 93.0672 46.4872 93.3165 46.4872 93.6235L46.4872 115.04C46.4872 116.253 45.5 117.241 44.2864 117.241C43.0728 117.241 42.0855 116.253 42.0855 115.04L42.0855 93.6235C42.0855 93.3165 42.3348 93.0672 42.6418 93.0672Z" fill="white"/>
<path d="M10.7747 108.479L9.19439 108.479C7.79851 108.479 6.6626 109.615 6.6626 111.01L6.6626 113.628C6.6626 113.935 6.91192 114.184 7.21909 114.184C7.52641 114.184 7.77543 113.935 7.77543 113.628L7.77543 111.01C7.77543 110.227 8.41209 109.591 9.19439 109.591L10.7747 109.591C11.5572 109.591 12.1937 110.227 12.1937 111.01L12.1937 113.624C12.1937 113.932 12.4427 114.18 12.75 114.18C13.0572 114.18 13.3062 113.932 13.3062 113.624L13.3062 111.01C13.3062 109.615 12.1706 108.479 10.7747 108.479Z" fill="white"/>
<path d="M16.5383 113.067L3.43061 113.067C3.21349 113.067 3.01616 113.195 2.92521 113.392L0.0508865 119.638C0.017323 119.71 -5.86616e-05 119.79 -5.86756e-05 119.87L-6.09379e-05 132.809C-6.09916e-05 133.116 0.248967 133.365 0.556283 133.365L8.34 133.365C8.64702 133.365 8.8962 133.116 8.8962 132.809C8.8962 132.502 8.64702 132.252 8.33986 132.252L1.11263 132.252L1.11263 119.993L3.78707 114.18L16.182 114.18L18.8563 119.993L18.8563 132.252L11.6291 132.252C11.3218 132.252 11.0727 132.502 11.0727 132.809C11.0727 133.116 11.3218 133.365 11.6291 133.365L19.4128 133.365C19.72 133.365 19.9691 133.116 19.9691 132.809L19.9691 119.87C19.9691 119.79 19.9518 119.71 19.9182 119.638L17.0437 113.392C16.9529 113.195 16.7556 113.067 16.5383 113.067Z" fill="white"/>
<path d="M16.7819 132.253C16.4746 132.253 16.2255 132.502 16.2255 132.809L16.2255 142.376L3.74367 142.376L3.74367 132.809C3.74367 132.502 3.49464 132.253 3.18733 132.253C2.88001 132.253 2.63098 132.502 2.63098 132.809L2.63098 142.932C2.63098 143.24 2.88001 143.489 3.18733 143.489L16.7819 143.489C17.089 143.489 17.3382 143.24 17.3382 142.932L17.3382 132.809C17.3382 132.502 17.089 132.253 16.7819 132.253Z" fill="white"/>
<path d="M9.98469 138.649C9.67737 138.649 9.42835 138.899 9.42835 139.206L9.42834 142.932C9.42834 143.24 9.67737 143.489 9.98469 143.489C10.2919 143.489 10.5409 143.24 10.5409 142.932L10.5409 139.206C10.5409 138.899 10.2919 138.649 9.98469 138.649Z" fill="white"/>
<path d="M6.5312 138.649C6.22403 138.649 5.97485 138.899 5.97485 139.206L5.97485 142.932C5.97485 143.24 6.22403 143.489 6.5312 143.489C6.83851 143.489 7.08769 143.24 7.08769 142.932L7.08769 139.206C7.08769 138.899 6.83851 138.649 6.5312 138.649Z" fill="white"/>
<path d="M13.4378 138.649C13.1307 138.649 12.8814 138.899 12.8814 139.206L12.8814 142.932C12.8814 143.24 13.1306 143.489 13.4378 143.489C13.7452 143.489 13.9941 143.24 13.9941 142.932L13.9943 139.206C13.9943 138.899 13.7451 138.649 13.4378 138.649Z" fill="white"/>
<path d="M8.8966 114.18L11.0727 114.18L11.0727 135.04C11.0727 135.64 10.5845 136.128 9.98471 136.128L9.98455 136.128C9.38476 136.128 8.89659 135.64 8.89659 135.04L8.8966 114.18ZM11.6292 113.067L8.3401 113.067C8.03279 113.067 7.78376 113.317 7.78376 113.624L7.78375 135.04C7.78375 136.253 8.77103 137.241 9.98455 137.241C11.1982 137.241 12.1855 136.253 12.1855 135.04L12.1855 113.624C12.1855 113.317 11.9362 113.067 11.6292 113.067Z" fill="white"/>
<path d="M27 143V87.5C27 82.8056 30.8056 79 35.5 79V79C40.1944 79 44 82.8056 44 87.5V88.9742" stroke="white" stroke-width="2"/>
<path d="M27.271 163V107.5C27.271 102.806 23.4654 99 18.771 99V99C14.0766 99 10.271 102.806 10.271 107.5V108.974" stroke="white" stroke-width="2"/>
</g>
</svg>
