<svg xmlns="http://www.w3.org/2000/svg" width="25" height="25" viewBox="0 0 25 25">
  <g id="_64.-Coins" data-name="64.-Coins" transform="translate(-1.433 -2.5)">
    <g id="Group_69593" data-name="Group 69593" transform="translate(1.933 3)">
      <path id="Layer-5" d="M62.467,82.375c0,1.672-2.688,3.027-6,3.027s-6-1.355-6-3.027" transform="translate(-38.467 -61.402)" fill="none" stroke="#fff" stroke-linecap="round" stroke-linejoin="round" stroke-width="1"/>
      <g id="Group" transform="translate(12.001 0)">
        <path id="Layer-1" d="M11.984,27c0,1.668-2.683,3.021-5.992,3.021S0,28.668,0,27" transform="translate(0 -20.126)" fill="none" stroke="#fff" stroke-linecap="round" stroke-linejoin="round" stroke-width="1"/>
        <path id="Layer-2" d="M0,42H.021c.259,1.548,2.833,2.763,5.971,2.763S11.7,43.548,11.963,42h.021" transform="translate(0 -31.307)" fill="none" stroke="#fff" stroke-linecap="round" stroke-linejoin="round" stroke-width="1"/>
        <path id="Layer-3" d="M0,55H.021c.259,1.548,2.833,2.763,5.971,2.763S11.7,56.548,11.963,55h.021" transform="translate(0 -40.997)" fill="none" stroke="#fff" stroke-linecap="round" stroke-linejoin="round" stroke-width="1"/>
        <path id="Layer-4" d="M0,69H.021c.259,1.548,2.833,2.763,5.971,2.763S11.7,70.548,11.963,69h.021" transform="translate(0 -51.433)" fill="none" stroke="#fff" stroke-linecap="round" stroke-linejoin="round" stroke-width="1"/>
        <ellipse id="Layer-6" cx="5.992" cy="3.108" rx="5.992" ry="3.108" fill="none" stroke="#fff" stroke-linecap="round" stroke-linejoin="round" stroke-width="1"/>
      </g>
      <path id="Layer-7" d="M98.057,13.65V31.118" transform="translate(-74.057 -10.174)" fill="none" stroke="#fff" stroke-linecap="round" stroke-linejoin="round" stroke-width="1"/>
      <path id="Layer-8" d="M3,55h.022c.26,1.551,2.839,2.769,5.983,2.769S14.728,56.551,14.988,55h.022" transform="translate(-2.983 -40.997)" fill="none" stroke="#fff" stroke-linecap="round" stroke-linejoin="round" stroke-width="1"/>
      <path id="Layer-9" d="M3,69h.022c.26,1.551,2.839,2.769,5.983,2.769S14.728,70.551,14.988,69h.022" transform="translate(-2.983 -51.433)" fill="none" stroke="#fff" stroke-linecap="round" stroke-linejoin="round" stroke-width="1"/>
      <path id="Layer-10" d="M14.942,82.375c0,1.672-2.688,3.027-6,3.027s-6-1.355-6-3.027" transform="translate(-2.933 -61.402)" fill="none" stroke="#fff" stroke-linecap="round" stroke-linejoin="round" stroke-width="1"/>
      <ellipse id="Layer-11" cx="6.005" cy="3.115" rx="6.005" ry="3.115" transform="translate(0.017 7.129)" fill="none" stroke="#fff" stroke-linecap="round" stroke-linejoin="round" stroke-width="1"/>
      <path id="Layer-12" d="M2.933,41.093V51.574" transform="translate(-2.933 -30.631)" fill="none" stroke="#fff" stroke-linecap="round" stroke-linejoin="round" stroke-width="1"/>
      <path id="Layer-13" d="M50.532,13.65V31.118" transform="translate(-38.523 -10.174)" fill="none" stroke="#fff" stroke-linecap="round" stroke-linejoin="round" stroke-width="1"/>
    </g>
  </g>
</svg>
