<svg xmlns="http://www.w3.org/2000/svg" width="14" height="14" viewBox="0 0 20 20">
  <g id="copy" transform="translate(-32 -32)">
    <path id="Path_38791" data-name="Path 38791" d="M125.214,128.429h-10A3.214,3.214,0,0,1,112,125.214v-10A3.214,3.214,0,0,1,115.214,112h10a3.214,3.214,0,0,1,3.214,3.214v10A3.214,3.214,0,0,1,125.214,128.429Z" transform="translate(-76.429 -76.429)" fill="#fff"/>
    <path id="Path_38792" data-name="Path 38792" d="M37.714,34.143h10.53A3.22,3.22,0,0,0,45.214,32h-10A3.214,3.214,0,0,0,32,35.214v10a3.22,3.22,0,0,0,2.143,3.03V37.714A3.571,3.571,0,0,1,37.714,34.143Z" fill="#fff"/>
  </g>
</svg>
