<svg xmlns="http://www.w3.org/2000/svg" width="16" height="16" viewBox="0 0 16 16">
  <path id="ic_gas" d="M10.5,14H.5a.5.5,0,0,0-.5.5v1a.5.5,0,0,0,.5.5h10a.5.5,0,0,0,.5-.5v-1A.5.5,0,0,0,10.5,14ZM15.412,3.353,12.881.822a.5.5,0,0,0-.706,0l-.353.353a.5.5,0,0,0,0,.706L13,3.059V5a1.747,1.747,0,0,0,1.5,1.725V11.75a.75.75,0,0,1-1.5,0v-1A2.75,2.75,0,0,0,10.25,8H10V2A2,2,0,0,0,8,0H3A2,2,0,0,0,1,2V13h9V9.5h.25a1.25,1.25,0,0,1,1.25,1.25v.869a2.343,2.343,0,0,0,2.016,2.372A2.256,2.256,0,0,0,16,11.75V4.769a2,2,0,0,0-.588-1.416ZM8,6H3V2H8Z" fill="#41cc41"/>
</svg>
