<svg xmlns="http://www.w3.org/2000/svg" width="24" height="24" viewBox="0 0 24 24">
  <path id="ic_caution" d="M735.492,424.754a12,12,0,1,1-12-12A12,12,0,0,1,735.492,424.754Zm-10.451.729v-7.074a1.522,1.522,0,1,0-3.043,0v7.074a1.522,1.522,0,1,0,3.043,0Zm-.19,6.314a1.939,1.939,0,0,0,.571-1.331,1.784,1.784,0,0,0-.571-1.331,1.934,1.934,0,0,0-1.331-.571,1.78,1.78,0,0,0-1.331.571,1.932,1.932,0,0,0-.571,1.331,1.782,1.782,0,0,0,.571,1.331,1.839,1.839,0,0,0,2.662,0Z" transform="translate(-711.492 -412.754)" fill="#3498db"/>
</svg>
