<?xml version="1.0" encoding="UTF-8"?>
<svg width="34.251mm" height="32.766mm" version="1.1" viewBox="0 0 34.251 32.766" xmlns="http://www.w3.org/2000/svg"><defs><clipPath id="clip-path"><rect width="220" height="220" fill="#fff" data-name="Rectangle 24148"/></clipPath></defs><g transform="translate(-124.66 -84.57)"><g id="KDA" transform="matrix(.26458 0 0 .26458 112.58 71.686)" clip-path="url(#clip-path)"><g fill="#4a9079"><path d="m175.09 172.54h-45.118l-0.03-0.022-0.355-0.272-55.913-43.382 22.885-18.244 78.154 61.626z" data-name="Path 143799"/><path d="m175.09 48.7h-45.118l-0.03 0.022-0.355 0.273-55.913 43.379 22.885 18.245 78.154-61.626z" data-name="Path 143800"/><path d="m73.684 113.37v15.5l7e-3 43.374v0.295l-0.03-0.022-0.348-0.273-27.213-21.375-0.067-0.052-0.392-0.3v-79.792l0.392-0.3 0.067-0.052 27.213-21.379 0.348-0.273 0.03-0.022v0.295l-7e-3 43.374v21z" data-name="Path 143801"/></g></g></g></svg>
