<svg width="48" height="32" viewBox="0 0 48 32" fill="none" xmlns="http://www.w3.org/2000/svg">
<path fill-rule="evenodd" clip-rule="evenodd" d="M15.2087 3.18562C14.0944 1.89263 12.5897 0.89457 11.0192 0.406633C7.63856 -0.643385 3.60053 0.397883 1.48825 2.86423C0.692619 3.79332 0.731637 4.05648 1.6267 3.79973C1.97559 3.69974 2.29068 3.64751 2.32688 3.68376C2.36309 3.71993 2.10924 4.10086 1.76274 4.53015C0.57015 6.00836 0.11223 7.30514 0.0219905 9.46017C-0.0694152 11.6423 0.109008 11.9028 0.843819 10.66L1.2872 9.91013L1.3976 11.3271C1.53104 13.0382 2.20448 14.5308 3.40681 15.7812C4.22268 16.6296 6.33433 17.8084 7.03897 17.8086C7.34665 17.8088 7.3891 18.0285 7.3891 19.617C7.3891 26.7862 10.8786 30.5556 18.5917 31.7176C20.8449 32.0571 26.8905 32.1005 29.1024 31.793C35.5851 30.8918 39.0652 28.3801 40.305 23.7079C40.48 23.048 40.6763 21.4507 40.7409 20.1585C40.8163 18.6506 40.9373 17.8088 41.079 17.8086C41.7426 17.8082 43.8029 16.5575 44.6649 15.6318C45.8931 14.313 46.4448 13.0728 46.5879 11.3099L46.7014 9.91013L47.1679 10.66C47.4244 11.0723 47.7168 11.4099 47.8181 11.4099C48.1174 11.4099 48.0272 8.36874 47.6946 7.24912C47.5256 6.68063 46.986 5.62944 46.4955 4.91335C46.005 4.19705 45.6262 3.61113 45.6536 3.61113C45.6812 3.61113 45.9945 3.69451 46.3499 3.79628C47.2569 4.05648 47.2988 3.7967 46.5003 2.86423C44.9704 1.07793 42.4659 0.011723 39.7992 0.011723C37.0463 0.011723 34.707 1.04134 32.9028 3.04705L32.0095 4.04008L30.3341 3.6205C26.2224 2.59108 20.1883 2.71346 16.8394 3.89427L16.0572 4.17025L15.2087 3.18562ZM39.6557 10.9724C38.546 8.24739 36.5691 6.26174 34.49 5.49789C35.5332 4.28725 37.0839 3.51989 38.8152 3.51989C41.9566 3.51989 44.5032 6.04626 44.5032 9.16269C44.5032 11.7044 42.8093 13.8535 40.4804 14.5598C40.4152 13.3985 40.1462 12.1772 39.6557 10.9724ZM13.509 5.49803C11.4299 6.26188 9.45289 8.24759 8.3432 10.9726C7.85264 12.1774 7.58377 13.3986 7.51849 14.5598C5.18953 13.8535 3.49568 11.7044 3.49568 9.16269C3.49568 6.04626 6.04229 3.51989 9.18368 3.51989C10.915 3.51989 12.4658 4.28732 13.509 5.49803ZM23.8167 14.3448C21.5907 14.3448 19.7862 16.1582 19.7862 18.3951V21.6968C19.7862 23.9337 21.5907 25.7471 23.8167 25.7471C26.0427 25.7471 27.8472 23.9337 27.8472 21.6968V18.3951C27.8472 16.1582 26.0427 14.3448 23.8167 14.3448ZM14.656 16.9195C14.656 15.9038 15.4774 15.0804 16.4881 15.0804C17.4988 15.0804 18.3201 15.9038 18.3201 16.9195C18.3201 17.9352 17.4988 18.7586 16.4881 18.7586C15.4774 18.7586 14.656 17.9352 14.656 16.9195ZM31.1446 15.0804C30.1338 15.0804 29.3126 15.9038 29.3126 16.9195C29.3126 17.9352 30.1338 18.7586 31.1446 18.7586C32.1553 18.7586 32.9767 17.9352 32.9767 16.9195C32.9767 15.9038 32.1553 15.0804 31.1446 15.0804Z" fill="white"/>
</svg>
