<svg xmlns="http://www.w3.org/2000/svg" width="8" height="13" viewBox="0 0 9.525 16">
  <path id="Path_44796" data-name="Path 44796" d="M383.44,560.06a3.241,3.241,0,0,0-.928-1.259,4.4,4.4,0,0,0-1.348-.736c-.354-.123-.738-.239-1.148-.349v-3.462l.086.03a1.592,1.592,0,0,1,.519.314,1.508,1.508,0,0,1,.35.479,1.407,1.407,0,0,1,.129.6l-.007.588h2.317l-.019-.6a4.066,4.066,0,0,0-.341-1.512,3.352,3.352,0,0,0-.863-1.163,3.6,3.6,0,0,0-1.258-.7,4.8,4.8,0,0,0-.907-.2V551.02h-1.968v1.073a4.325,4.325,0,0,0-.934.206,3.849,3.849,0,0,0-1.293.741,3.54,3.54,0,0,0-1.23,2.732,3.722,3.722,0,0,0,.326,1.628,3.219,3.219,0,0,0,.9,1.129,4.515,4.515,0,0,0,1.257.691c.314.116.635.219.961.309V563.5a2.216,2.216,0,0,1-.9-.6,2.121,2.121,0,0,1-.429-.706,2.487,2.487,0,0,1-.154-.888l0-.586h-2.334l.078,1.037c.011.153.03.314.058.482a4.119,4.119,0,0,0,1.507,2.55,4.943,4.943,0,0,0,2.186.872v1.356h1.966l-.007-1.356a5.238,5.238,0,0,0,.943-.222,4.508,4.508,0,0,0,1.384-.733,3.866,3.866,0,0,0,1.009-1.19,3.3,3.3,0,0,0,.4-1.607A4.709,4.709,0,0,0,383.44,560.06Zm-5.4-5.814v2.974l-.129-.046a2.117,2.117,0,0,1-.58-.316,1.151,1.151,0,0,1-.326-.4,1.681,1.681,0,0,1-.133-.724,1.5,1.5,0,0,1,.13-.633,1.415,1.415,0,0,1,.357-.485,1.681,1.681,0,0,1,.556-.328c.042-.016.084-.03.126-.041Zm1.981,9.294V560c.092.026.182.054.27.083a2.22,2.22,0,0,1,.651.329,1.308,1.308,0,0,1,.378.451,2.1,2.1,0,0,1,.006,1.606,1.746,1.746,0,0,1-.429.589,2.157,2.157,0,0,1-.664.407,1.9,1.9,0,0,1-.213.075Z" transform="translate(-374.233 -551.02)" fill="#fff"/>
</svg>
