<svg xmlns="http://www.w3.org/2000/svg" width="118" height="47" viewBox="0 0 118 47">
  <g id="auditing_by" data-name="auditing by" transform="translate(-583 -731)">
    <rect id="Rectangle_12861" data-name="Rectangle 12861" width="118" height="47" rx="8" transform="translate(583 731)" fill="#292a45" opacity="0.1"/>
    <g id="Group_76162" data-name="Group 76162" transform="translate(2 -1)">
      <path id="Union_1" data-name="Union 1" d="M36.218,20.971h1.721a3.735,3.735,0,0,0,3.215,1.622,3.866,3.866,0,0,0,4.134-3.86v-.56l-.4.391a5.6,5.6,0,0,1-3.673,1.343,5.491,5.491,0,0,1-4.072-1.678A5.94,5.94,0,0,1,35.475,14.2,5.5,5.5,0,0,1,37.02,10.23a5.715,5.715,0,0,1,9.872,3.8v3.919c0,3.8-2.124,6.042-5.625,6.042a5.205,5.205,0,0,1-5.049-3.024Zm.919-6.769a4.02,4.02,0,0,0,4.072,4.2,4.124,4.124,0,0,0,4.072-4.2,4.077,4.077,0,1,0-8.15,0Zm41.382,9.567V14.2a5.5,5.5,0,0,1,1.55-3.972A5.662,5.662,0,0,1,84.14,8.44a5.526,5.526,0,0,1,4.134,1.679,5.433,5.433,0,0,1,1.666,3.916,6,6,0,0,1-1.55,4.028,5.368,5.368,0,0,1-4.134,1.846,5.631,5.631,0,0,1-3.673-1.287l-.4-.336v5.483ZM80.184,14.2a4.021,4.021,0,0,0,4.072,4.2,4.124,4.124,0,0,0,4.072-4.2,4.077,4.077,0,1,0-8.151,0ZM25.2,18.286A5.97,5.97,0,0,1,23.53,14.2a5.241,5.241,0,0,1,1.6-3.972,5.654,5.654,0,0,1,4.134-1.846,5.892,5.892,0,0,1,4.193,1.733,3.865,3.865,0,0,1,.631.727l.057.056L32.6,12.41l-.057-.112a3.529,3.529,0,0,0-3.157-1.846A3.606,3.606,0,0,0,25.771,14.2a3.606,3.606,0,0,0,3.616,3.748,3.548,3.548,0,0,0,3.1-1.848l.115-.056,1.55,1.51-.057.056a4.928,4.928,0,0,1-.459.56,5.908,5.908,0,0,1-4.247,1.846,5.7,5.7,0,0,1-4.19-1.732ZM66.75,15.263V8.775h1.722v6.713c.115,1.622,1.894,2.8,3.443,2.8s3.332-1.172,3.444-2.8V8.775H77.2v6.49c0,2.517-2.468,4.7-5.223,4.7s-5.223-2.182-5.223-4.7ZM14.059,18.172a5.973,5.973,0,0,1-1.666-4.085A5.684,5.684,0,0,1,14,10.059a5.655,5.655,0,0,1,4.134-1.846,5.894,5.894,0,0,1,4.19,1.734,2.455,2.455,0,0,1,.344.392l.057.056-1.544,1.51-.057-.056A3.645,3.645,0,0,0,18.195,10.4a3.5,3.5,0,0,0-3.559,3.637,3.606,3.606,0,0,0,3.616,3.749,3.465,3.465,0,0,0,2.87-1.455l.057-.056,1.55,1.51-.057.056a.774.774,0,0,1-.172.223,5.908,5.908,0,0,1-4.247,1.846,5.7,5.7,0,0,1-4.19-1.731Zm41.5-.112a5.94,5.94,0,0,1-1.666-4.028,5.5,5.5,0,0,1,1.55-3.972,5.723,5.723,0,0,1,8.206-.112,5.434,5.434,0,0,1,1.666,3.916,6,6,0,0,1-1.55,4.028,5.368,5.368,0,0,1-4.128,1.85,5.486,5.486,0,0,1-4.075-1.68Zm0-4.084a4.076,4.076,0,1,0,8.15,0,4.076,4.076,0,1,0-8.15,0ZM8.379,19.685v-6.6c0-1.454-1.6-2.573-3.042-2.573-1.377,0-3.042,1.119-3.042,2.573v6.6H0V13.14c0-2.574,2.525-4.867,5.4-4.867,2.813,0,5.338,2.293,5.281,4.867v6.544Zm40.178-.112V14.09a5.335,5.335,0,0,1,1.55-3.86A6.008,6.008,0,0,1,53.723,8.44v1.622a3.985,3.985,0,0,0-3.387,4.028v5.483ZM92.235,9.334A4.729,4.729,0,0,1,89.15,6.522l-.016.015a4.68,4.68,0,0,1-.115-3.189A5.081,5.081,0,0,1,95.275.216a4.7,4.7,0,0,1,2.641,1.958c-.058.056-.115.056-.173.112a1.774,1.774,0,0,1-1.262.168,2.26,2.26,0,0,0-2.3,1.007c-.689,1.287-1.148,1.623-2.468,1.679a2.085,2.085,0,0,0-1.837,1,1.844,1.844,0,0,0-.608.279c.091-.036.189-.072.263-.108a2.87,2.87,0,0,1,1.551.068,2.884,2.884,0,0,0,1.666.043c.861-.223,1.32-.9,1.951-1.063a2.741,2.741,0,0,1,1.83.275,3.3,3.3,0,0,0,1.385.341,1.249,1.249,0,0,0,.689-.168c-.057.112-.057.28-.115.392a5.09,5.09,0,0,1-6.256,3.133ZM91.03,6.146a2.326,2.326,0,0,0-1.144,0l.053-.052a2.4,2.4,0,0,1,1.95-.785,1.612,1.612,0,0,0-.8.56A2.345,2.345,0,0,1,93.1,5.416a1.718,1.718,0,0,0,.516.112,3.412,3.412,0,0,1-1.148.672,1.811,1.811,0,0,1-.489.062,5.085,5.085,0,0,1-.948-.116Zm-1.148,0h0l0,0a.016.016,0,0,1,0-.007Zm3.386-1.06h-.115a3.5,3.5,0,0,0,1.09-.954,2.486,2.486,0,0,1,2.066-.951,2.971,2.971,0,0,0-.918.783,2.579,2.579,0,0,1-2,1.124q-.061,0-.123,0Zm2.41-.447.23-.224a2.3,2.3,0,0,1,2.353-.28,3.992,3.992,0,0,1,.459.168v.168a1.623,1.623,0,0,1-1.09.5,16.327,16.327,0,0,0-1.952-.339Z" transform="translate(591 750.006)" fill="#292a45"/>
      <g id="Group_76161" data-name="Group 76161">
        <path id="Pool" d="M3.68-7H2.51L.44-.1V0h.91l.52-1.83H4.31L4.83,0h.93V-.1ZM2.09-2.61l.98-3.42h.04l.98,3.42ZM8.28.09c1.67,0,2.24-1.11,2.24-2.56V-7H9.64v4.51c0,.93-.13,1.78-1.36,1.78-1.2,0-1.35-.86-1.35-1.78V-7H6.06v4.53C6.06-1,6.64.09,8.28.09ZM11.2,0h1.71C15,0,15.74-1.55,15.74-3.5c0-2.1-.84-3.5-2.83-3.5H11.2Zm.87-.79V-6.2h.75c1.61,0,2.02,1.25,2.02,2.7S14.43-.79,12.82-.79ZM16.49,0h4.32V-.75H19.09v-5.5h1.72V-7H16.49v.75h1.72v5.5H16.49Zm6.92,0h.88V-6.2h2.12V-7H21.29v.8h2.12ZM26.9,0h4.29V-.79H27.77V-3.21h3.11v-.8H27.77V-6.2h3.42V-7H26.9Zm5.06,0h1.71c2.09,0,2.83-1.55,2.83-3.5,0-2.1-.84-3.5-2.83-3.5H31.96Zm.87-.79V-6.2h.75c1.61,0,2.02,1.25,2.02,2.7S35.19-.79,33.58-.79ZM42.31,0h2.48a1.885,1.885,0,0,0,2.13-2.02,1.722,1.722,0,0,0-1.14-1.69v-.04a1.432,1.432,0,0,0,.88-1.43A1.741,1.741,0,0,0,44.72-7H42.31Zm.86-4V-6.22h1.45c.8,0,1.15.38,1.15,1.04,0,.82-.45,1.18-1.26,1.18Zm0,3.21V-3.24h1.52c.89,0,1.33.4,1.33,1.22A1.166,1.166,0,0,1,44.69-.79Zm6.2.79h.88V-2.92l2.1-3.98V-7h-.86L49.84-3.76H49.8L48.14-7h-.88v.1l2.11,3.98Z" transform="translate(591 748)" fill="#292a45"/>
        <path id="svgviewer-output_3_" data-name="svgviewer-output (3)" d="M86.567,4.787c1.736-.541,3.6-1.261,4.272-2.027.668.766,2.537,1.486,4.272,2.027.133,1.982-.534,6.351-4.272,7.973C87.1,11.138,86.433,6.768,86.567,4.787Zm3.46,3.726,2.626-2.649a.449.449,0,0,1,.634.635L90.344,9.468a.442.442,0,0,1-.63,0L88.557,8.3a.451.451,0,0,1,0-.635.442.442,0,0,1,.63,0Z" transform="translate(565.449 736.24)" fill="#1dc872" fill-rule="evenodd"/>
      </g>
    </g>
  </g>
</svg>
