<svg xmlns="http://www.w3.org/2000/svg" xmlns:xlink="http://www.w3.org/1999/xlink" width="32" height="32" viewBox="0 0 25 25" version="1.1" style="margin: 0px 8px;"><g id="surface1"><path fill="#41AD49" d="M 14.277344 0.507812 C 14.042969 0.800781 13.867188 1.132812 13.867188 1.25 C 13.867188 1.367188 12.480469 1.777344 10.722656 2.167969 C 7.636719 2.871094 7.558594 2.871094 7.207031 2.519531 C 6.699219 2.011719 5.390625 2.03125 4.882812 2.539062 C 4.453125 2.96875 4.355469 4.0625 4.6875 4.6875 C 4.824219 4.960938 4.570312 5.683594 3.457031 7.988281 C 2.1875 10.664062 2.011719 10.9375 1.542969 10.9375 C 0.878906 10.9375 0.195312 11.699219 0.195312 12.441406 C 0.195312 13.242188 0.859375 14.0625 1.523438 14.0625 C 2.011719 14.0625 2.167969 14.296875 3.457031 17.011719 C 4.570312 19.316406 4.824219 20.039062 4.6875 20.3125 C 4.355469 20.9375 4.453125 22.03125 4.882812 22.460938 C 5.390625 22.96875 6.699219 22.988281 7.207031 22.480469 C 7.558594 22.128906 7.636719 22.128906 10.722656 22.832031 C 12.480469 23.222656 13.867188 23.632812 13.867188 23.75 C 13.867188 23.867188 14.042969 24.199219 14.277344 24.492188 C 14.589844 24.902344 14.84375 25 15.527344 25 C 16.210938 25 16.464844 24.902344 16.777344 24.492188 C 17.011719 24.199219 17.1875 23.691406 17.1875 23.359375 C 17.1875 22.8125 17.441406 22.558594 19.667969 20.800781 C 22.109375 18.886719 22.1875 18.847656 23.066406 18.90625 C 23.847656 18.964844 24.023438 18.90625 24.394531 18.4375 C 25 17.65625 24.941406 16.738281 24.21875 16.152344 L 23.632812 15.644531 L 23.632812 9.355469 L 24.21875 8.847656 C 24.941406 8.261719 25 7.34375 24.394531 6.5625 C 24.023438 6.09375 23.847656 6.035156 23.066406 6.09375 C 22.1875 6.152344 22.109375 6.113281 19.6875 4.199219 C 17.441406 2.441406 17.1875 2.1875 17.1875 1.640625 C 17.1875 1.308594 17.011719 0.800781 16.777344 0.507812 C 16.464844 0.0976562 16.210938 0 15.527344 0 C 14.84375 0 14.589844 0.0976562 14.277344 0.507812 Z M 12.402344 3.4375 L 11.289062 4.355469 L 9.941406 4.121094 C 9.199219 3.984375 8.59375 3.808594 8.59375 3.730469 C 8.59375 3.613281 12.480469 2.636719 13.242188 2.558594 C 13.398438 2.558594 13.007812 2.949219 12.402344 3.4375 Z M 20.996094 6.601562 C 20.976562 6.621094 20.332031 6.503906 19.589844 6.328125 C 18.105469 5.957031 18.125 5.976562 17.246094 3.945312 C 16.992188 3.339844 17.128906 3.417969 19.003906 4.921875 C 20.136719 5.820312 21.015625 6.5625 20.996094 6.601562 Z M 13.730469 4.199219 C 13.378906 4.921875 13.320312 4.960938 12.792969 4.765625 C 12.539062 4.667969 12.597656 4.53125 13.125 4.082031 C 13.984375 3.359375 14.121094 3.378906 13.730469 4.199219 Z M 14.960938 5.234375 C 14.882812 5.292969 14.746094 5.253906 14.628906 5.136719 C 14.492188 5 14.511719 4.765625 14.6875 4.375 L 14.941406 3.808594 L 15 4.472656 C 15.039062 4.824219 15.019531 5.175781 14.960938 5.234375 Z M 16.777344 5.625 C 16.289062 5.820312 16.015625 5.449219 16.015625 4.648438 L 16.035156 3.808594 L 16.503906 4.6875 C 16.757812 5.175781 16.875 5.605469 16.777344 5.625 Z M 9.824219 5.058594 C 10.175781 5.195312 10.175781 5.195312 9.824219 5.507812 C 9.492188 5.800781 9.433594 5.800781 8.789062 5.253906 L 8.105469 4.6875 L 8.789062 4.824219 C 9.160156 4.882812 9.628906 5 9.824219 5.058594 Z M 8.359375 6.582031 C 8.105469 6.894531 8.144531 6.914062 7.734375 6.09375 L 7.402344 5.429688 L 7.988281 5.878906 C 8.457031 6.210938 8.535156 6.367188 8.359375 6.582031 Z M 12.871094 5.78125 C 12.929688 5.820312 12.753906 6.289062 12.5 6.835938 C 12.011719 7.890625 11.972656 7.890625 10.839844 6.933594 L 10.253906 6.425781 L 10.839844 5.9375 C 11.308594 5.546875 11.5625 5.488281 12.109375 5.585938 C 12.480469 5.644531 12.832031 5.742188 12.871094 5.78125 Z M 4.84375 9.433594 C 3.125 10.957031 3.144531 10.761719 5.097656 6.757812 L 5.566406 5.820312 L 5.625 7.246094 L 5.683594 8.691406 Z M 7.03125 7.695312 C 6.601562 8.242188 6.445312 8.027344 6.464844 6.875 L 6.464844 5.761719 L 6.875 6.582031 C 7.226562 7.265625 7.246094 7.460938 7.03125 7.695312 Z M 14.726562 6.171875 C 14.960938 6.269531 15.039062 6.582031 15.039062 7.617188 C 15.039062 8.652344 14.960938 8.964844 14.726562 9.0625 C 14.140625 9.277344 13.535156 9.179688 13.183594 8.789062 C 12.832031 8.398438 12.832031 8.359375 13.378906 7.226562 C 13.925781 6.074219 14.101562 5.9375 14.726562 6.171875 Z M 17.148438 6.738281 C 17.539062 6.855469 18.164062 7.714844 18.164062 8.164062 C 18.164062 8.261719 17.8125 8.398438 17.402344 8.476562 C 16.972656 8.535156 16.503906 8.652344 16.328125 8.710938 C 16.054688 8.808594 16.015625 8.652344 16.015625 7.617188 C 16.015625 6.328125 15.9375 6.386719 17.148438 6.738281 Z M 11.386719 8.613281 C 11.660156 8.828125 10.996094 9.902344 10.507812 10.039062 C 9.707031 10.234375 9.628906 10.175781 9.101562 8.945312 L 8.574219 7.734375 L 9.023438 7.402344 C 9.453125 7.070312 9.492188 7.070312 10.351562 7.753906 C 10.839844 8.144531 11.308594 8.535156 11.386719 8.613281 Z M 20.605469 7.636719 C 20.703125 7.753906 20.625 7.8125 20.410156 7.8125 C 20.195312 7.8125 19.84375 7.871094 19.609375 7.929688 C 19.316406 8.007812 19.160156 7.910156 19.003906 7.558594 L 18.789062 7.089844 L 19.589844 7.285156 C 20.039062 7.382812 20.488281 7.558594 20.605469 7.636719 Z M 8.59375 10.273438 C 8.59375 10.390625 8.339844 10.546875 8.027344 10.605469 C 7.714844 10.664062 7.246094 10.78125 6.953125 10.859375 C 6.464844 10.976562 6.445312 10.9375 6.445312 10.234375 C 6.445312 9.609375 6.5625 9.375 7.070312 8.945312 L 7.714844 8.417969 L 8.144531 9.238281 C 8.378906 9.6875 8.574219 10.15625 8.59375 10.273438 Z M 20.605469 9.0625 C 20 9.550781 19.726562 9.550781 19.726562 9.082031 C 19.726562 8.847656 19.921875 8.789062 20.996094 8.632812 C 21.113281 8.613281 20.9375 8.808594 20.605469 9.0625 Z M 18.925781 9.707031 C 19.0625 9.980469 19.082031 10.273438 19.003906 10.351562 C 18.925781 10.410156 18.457031 10.78125 17.96875 11.171875 L 17.070312 11.875 L 16.542969 11.445312 C 16.171875 11.152344 16.015625 10.839844 16.015625 10.410156 C 16.015625 9.84375 16.09375 9.765625 16.855469 9.570312 C 17.304688 9.453125 17.773438 9.316406 17.871094 9.277344 C 18.378906 9.101562 18.710938 9.21875 18.925781 9.707031 Z M 21.308594 10.351562 C 20.859375 11.386719 20.761719 11.445312 20.605469 10.917969 C 20.488281 10.566406 20.585938 10.371094 20.976562 10.019531 C 21.269531 9.765625 21.542969 9.570312 21.582031 9.570312 C 21.621094 9.570312 21.503906 9.921875 21.308594 10.351562 Z M 22.617188 13.789062 L 22.558594 15.078125 L 21.992188 13.789062 L 21.445312 12.5 L 21.992188 11.210938 L 22.558594 9.921875 L 22.617188 11.210938 C 22.65625 11.914062 22.65625 13.085938 22.617188 13.789062 Z M 5.605469 11.074219 C 5.488281 11.191406 4.042969 11.523438 3.964844 11.445312 C 3.945312 11.425781 4.296875 11.113281 4.746094 10.761719 C 5.527344 10.15625 5.566406 10.15625 5.625 10.546875 C 5.664062 10.78125 5.644531 11.015625 5.605469 11.074219 Z M 14.316406 10.957031 C 15.019531 11.542969 15.058594 11.621094 15 12.558594 C 14.941406 13.417969 14.863281 13.59375 14.21875 14.121094 C 13.535156 14.667969 13.476562 14.6875 12.558594 14.472656 C 11.699219 14.257812 11.582031 14.160156 11.25 13.378906 C 10.917969 12.519531 10.917969 12.480469 11.25 11.621094 C 11.5625 10.917969 11.738281 10.722656 12.304688 10.566406 C 13.378906 10.292969 13.535156 10.3125 14.316406 10.957031 Z M 19.960938 13.203125 L 19.609375 13.886719 L 18.847656 13.28125 C 18.417969 12.929688 18.066406 12.597656 18.066406 12.5 C 18.066406 12.402344 18.417969 12.070312 18.847656 11.71875 L 19.609375 11.113281 L 19.960938 11.796875 C 20.3125 12.480469 20.3125 12.519531 19.960938 13.203125 Z M 9.472656 11.914062 C 9.746094 12.441406 9.746094 12.558594 9.472656 13.085938 C 9.296875 13.398438 9.121094 13.671875 9.0625 13.671875 C 9.003906 13.671875 8.398438 13.535156 7.714844 13.359375 C 6.523438 13.066406 6.445312 13.007812 6.445312 12.480469 C 6.445312 12.03125 6.542969 11.894531 6.992188 11.796875 C 7.285156 11.738281 7.792969 11.601562 8.105469 11.523438 C 9.042969 11.269531 9.160156 11.289062 9.472656 11.914062 Z M 5.664062 12.519531 C 5.664062 12.8125 5.585938 12.890625 5.351562 12.8125 C 5.175781 12.753906 4.882812 12.695312 4.667969 12.695312 C 4.101562 12.695312 4.21875 12.34375 4.84375 12.246094 C 5.136719 12.207031 5.429688 12.148438 5.527344 12.128906 C 5.605469 12.128906 5.664062 12.285156 5.664062 12.519531 Z M 19.003906 14.648438 C 19.082031 14.726562 19.042969 15.019531 18.90625 15.3125 C 18.652344 15.898438 18.535156 15.898438 16.757812 15.410156 C 16.09375 15.234375 16.015625 15.15625 16.015625 14.589844 C 16.015625 14.160156 16.171875 13.847656 16.5625 13.554688 L 17.089844 13.125 L 17.96875 13.828125 C 18.457031 14.199219 18.925781 14.570312 19.003906 14.648438 Z M 4.941406 13.691406 C 5.527344 13.847656 5.664062 13.964844 5.664062 14.394531 C 5.664062 14.941406 5.722656 14.960938 4.433594 13.925781 C 3.808594 13.417969 3.886719 13.398438 4.941406 13.691406 Z M 21.308594 14.648438 C 21.640625 15.410156 21.640625 15.429688 21.308594 15.253906 C 20.722656 14.941406 20.46875 14.492188 20.605469 14.0625 C 20.761719 13.554688 20.859375 13.632812 21.308594 14.648438 Z M 8.027344 14.394531 C 8.710938 14.53125 8.710938 14.589844 8.164062 15.703125 L 7.753906 16.582031 L 7.089844 16.074219 C 6.542969 15.664062 6.445312 15.449219 6.445312 14.804688 C 6.445312 14.0625 6.464844 14.023438 6.953125 14.140625 C 7.246094 14.21875 7.714844 14.335938 8.027344 14.394531 Z M 4.746094 15.488281 L 5.664062 16.25 L 5.664062 17.734375 L 5.644531 19.238281 L 5.136719 18.261719 C 4.140625 16.367188 3.320312 14.433594 3.554688 14.570312 C 3.691406 14.648438 4.21875 15.058594 4.746094 15.488281 Z M 10.507812 14.960938 C 10.996094 15.097656 11.660156 16.171875 11.386719 16.386719 C 11.308594 16.464844 10.839844 16.855469 10.351562 17.246094 C 9.492188 17.929688 9.453125 17.929688 9.023438 17.597656 L 8.574219 17.265625 L 9.101562 16.054688 C 9.628906 14.824219 9.707031 14.765625 10.507812 14.960938 Z M 21.09375 16.347656 C 21.09375 16.40625 19.863281 16.171875 19.746094 16.09375 C 19.707031 16.054688 19.726562 15.898438 19.804688 15.722656 C 19.902344 15.449219 20 15.46875 20.507812 15.839844 C 20.820312 16.09375 21.09375 16.308594 21.09375 16.347656 Z M 14.726562 15.9375 C 15.175781 16.113281 15.175781 18.652344 14.726562 18.828125 C 14.101562 19.0625 13.925781 18.925781 13.378906 17.773438 C 12.832031 16.640625 12.832031 16.601562 13.183594 16.210938 C 13.535156 15.820312 14.140625 15.722656 14.726562 15.9375 Z M 17.402344 16.523438 C 17.8125 16.601562 18.164062 16.738281 18.164062 16.835938 C 18.164062 17.285156 17.539062 18.144531 17.148438 18.261719 C 15.9375 18.613281 16.015625 18.671875 16.015625 17.382812 C 16.015625 16.347656 16.054688 16.191406 16.328125 16.289062 C 16.503906 16.347656 16.972656 16.464844 17.402344 16.523438 Z M 7.03125 17.304688 C 7.246094 17.539062 7.226562 17.734375 6.875 18.417969 L 6.464844 19.238281 L 6.464844 18.105469 C 6.445312 16.972656 6.601562 16.757812 7.03125 17.304688 Z M 20.371094 17.1875 C 21.054688 17.1875 20.683594 17.5 19.746094 17.695312 L 18.789062 17.890625 L 19.003906 17.421875 C 19.160156 17.089844 19.316406 16.992188 19.609375 17.070312 C 19.84375 17.128906 20.175781 17.1875 20.371094 17.1875 Z M 12.890625 19.0625 C 12.890625 19.199219 12.578125 19.355469 12.207031 19.414062 C 11.679688 19.511719 11.386719 19.453125 10.9375 19.140625 C 10.605469 18.90625 10.351562 18.652344 10.351562 18.574219 C 10.351562 18.515625 10.722656 18.164062 11.171875 17.8125 L 11.992188 17.167969 L 12.441406 18.007812 C 12.675781 18.476562 12.871094 18.945312 12.890625 19.0625 Z M 8.59375 18.535156 C 8.59375 18.613281 8.339844 18.867188 8.007812 19.101562 L 7.421875 19.550781 L 7.734375 18.867188 C 7.949219 18.457031 8.164062 18.242188 8.320312 18.300781 C 8.476562 18.359375 8.59375 18.457031 8.59375 18.535156 Z M 21.074219 18.417969 C 21.035156 18.457031 20.097656 19.21875 18.984375 20.097656 C 17.109375 21.601562 16.992188 21.660156 17.246094 21.054688 C 18.105469 19.0625 18.125 19.023438 19.414062 18.710938 C 20.585938 18.398438 21.230469 18.300781 21.074219 18.417969 Z M 9.824219 19.941406 C 9.628906 20 9.160156 20.117188 8.789062 20.175781 L 8.105469 20.3125 L 8.789062 19.746094 C 9.433594 19.199219 9.492188 19.199219 9.824219 19.492188 C 10.175781 19.804688 10.175781 19.804688 9.824219 19.941406 Z M 16.542969 20.234375 L 16.113281 21.152344 L 16.054688 20.507812 C 15.957031 19.667969 16.113281 19.335938 16.601562 19.335938 C 16.972656 19.335938 16.972656 19.355469 16.542969 20.234375 Z M 15.039062 20.449219 L 15.019531 21.191406 L 14.726562 20.644531 C 14.433594 20.117188 14.492188 19.726562 14.863281 19.726562 C 14.960938 19.726562 15.039062 20.058594 15.039062 20.449219 Z M 13.730469 20.800781 C 14.121094 21.621094 14.042969 21.640625 13.183594 20.957031 C 12.714844 20.585938 12.597656 20.371094 12.753906 20.273438 C 13.183594 20 13.398438 20.117188 13.730469 20.800781 Z M 12.460938 21.621094 C 13.28125 22.285156 13.4375 22.5 13.085938 22.402344 C 12.8125 22.324219 11.699219 22.089844 10.605469 21.855469 C 9.492188 21.621094 8.59375 21.347656 8.59375 21.269531 C 8.59375 21.132812 10.117188 20.761719 10.898438 20.722656 C 11.171875 20.703125 11.796875 21.054688 12.460938 21.621094 Z M 12.460938 21.621094 " style="stroke: none; fill-rule: nonzero; fill-opacity: 1;"></path></g></svg>