<svg xmlns="http://www.w3.org/2000/svg" width="24" height="26" viewBox="0 0 24 26">
  <g id="Group_54083" data-name="Group 54083" transform="translate(-19.32 26) rotate(-90)">
    <path id="Path_38813" data-name="Path 38813" d="M4.707,29.292a.814.814,0,0,0,1.149,0l1.051-1.049a.811.811,0,0,0,0-1.147L5.856,26.047H20.312a2.438,2.438,0,0,1,2.438,2.434A1.219,1.219,0,0,0,23.969,29.7h.813A1.219,1.219,0,0,0,26,28.481,5.689,5.689,0,0,0,20.312,22.8H5.856l1.051-1.049a.811.811,0,0,0,0-1.147L5.856,19.557a.814.814,0,0,0-1.149,0L.119,24.138a.406.406,0,0,0,0,.574Z" transform="translate(0)" fill="#fff"/>
    <path id="Path_38814" data-name="Path 38814" d="M21.293,288.406a.814.814,0,0,0-1.149,0l-1.051,1.049a.809.809,0,0,0,0,1.147l1.051,1.049H5.687a2.438,2.438,0,0,1-2.437-2.434A1.219,1.219,0,0,0,2.031,288H1.219A1.219,1.219,0,0,0,0,289.217,5.689,5.689,0,0,0,5.687,294.9H20.144l-1.051,1.049a.809.809,0,0,0,0,1.147l1.051,1.049a.814.814,0,0,0,1.149,0l4.588-4.58a.406.406,0,0,0,0-.574Z" transform="translate(0 -255.058)" fill="#fff"/>
  </g>
</svg>
