<svg xmlns="http://www.w3.org/2000/svg" width="24" height="24" viewBox="0 0 24 24"><defs><style>.a{fill:#fff;}</style></defs><g transform="translate(-1127.603 705.261) rotate(-90)"><path class="a" d="M701.82,1127.6H684.7a3.556,3.556,0,0,0-3.442,3.662v16.674a3.558,3.558,0,0,0,3.442,3.664H701.82a3.558,3.558,0,0,0,3.441-3.664v-16.674A3.556,3.556,0,0,0,701.82,1127.6Zm1.249,20.827a.889.889,0,0,1-.86.915h-17.9a.889.889,0,0,1-.86-.915v-11.579a.89.89,0,0,1,.86-.916h17.9a.889.889,0,0,1,.86.916Zm0-15.384a.889.889,0,0,1-.86.916h-17.9a.89.89,0,0,1-.86-.916v-2.271a.89.89,0,0,1,.86-.917h17.9a.889.889,0,0,1,.86.917Z" transform="translate(0 0)"/><g transform="translate(684.883 1130.996)"><ellipse class="a" cx="0.86" cy="0.916" rx="0.86" ry="0.916" transform="translate(2.581 0)"/><ellipse class="a" cx="0.86" cy="0.916" rx="0.86" ry="0.916" transform="translate(0 0)"/></g><g transform="translate(685.349 1136.735)"><g transform="translate(0 3.569)"><path class="a" d="M699.562,1158.688l.016,0h-6.239l1.961-2.092a.575.575,0,0,0,0-.771l-.3-.324a.488.488,0,0,0-.72,0l-3.362,3.579a.571.571,0,0,0,0,.769l3.362,3.577a.489.489,0,0,0,.72,0l.3-.324a.553.553,0,0,0,.149-.383.539.539,0,0,0-.149-.377l-1.983-2.1h6.254a.546.546,0,0,0,.517-.557v-.46A.535.535,0,0,0,699.562,1158.688Z" transform="translate(-690.763 -1155.345)"/></g><g transform="translate(6.501 0)"><path class="a" d="M705.874,1151.429v.46a.546.546,0,0,0,.517.557h6.254l-1.983,2.1a.538.538,0,0,0-.15.377.55.55,0,0,0,.15.382l.3.325a.489.489,0,0,0,.72,0l3.362-3.577a.565.565,0,0,0,.149-.386.557.557,0,0,0-.149-.383l-3.362-3.579a.488.488,0,0,0-.72,0l-.3.324a.571.571,0,0,0,0,.771l1.961,2.092h-6.239l.015,0A.534.534,0,0,0,705.874,1151.429Z" transform="translate(-705.874 -1147.55)"/></g></g></g></svg>