<svg xmlns="http://www.w3.org/2000/svg" width="32" height="24" viewBox="0 0 32 24">
  <g id="download_1_" data-name="download (1)" transform="translate(-159.572 -222.689)" opacity="0.7">
    <path id="Path_67498" data-name="Path 67498" d="M226.777,287.824c0,2.282-1.835,5.41-4.1,5.41s-4.1-3.124-4.1-5.41a4.1,4.1,0,1,1,8.2,0Z" transform="translate(-54.256 -56.212)" fill="#39fffc"/>
    <path id="Path_67499" data-name="Path 67499" d="M218.825,280.462a2.692,2.692,0,0,1-.04.613c.025-.1.007-.065,0,.011-.007.055-.018.105-.029.16-.022.109-.043.214-.068.319a6.709,6.709,0,0,1-.194.642c-.036.1-.072.2-.112.294-.011.029-.05.109.007-.018-.011.022-.018.044-.029.069-.022.051-.047.105-.072.156a7.4,7.4,0,0,1-.7,1.172c.061-.087.018-.022-.018.022s-.068.087-.1.127c-.072.083-.144.167-.219.243s-.151.152-.23.225l-.1.091-.068.058c-.014.011-.09.076-.025.022s-.061.047-.079.058l-.108.076a2.782,2.782,0,0,1-.281.167,1.128,1.128,0,0,1-.115.058c-.018.011-.04.018-.057.029-.1.051.025-.007.033-.011a.811.811,0,0,1-.277.1,2.481,2.481,0,0,1-.284.069.3.3,0,0,0-.061.011c-.068.018.061-.014.065-.007a1.441,1.441,0,0,0-.166.014c-.09,0-.184,0-.274,0a1.233,1.233,0,0,0-.147-.014s.133.022.065.007a.524.524,0,0,0-.083-.014,2.473,2.473,0,0,1-.284-.073c-.04-.011-.079-.025-.119-.04s-.054-.018-.079-.029-.094-.055-.022-.007-.05-.025-.079-.04-.076-.04-.115-.062a2.726,2.726,0,0,1-.277-.17l-.108-.076c-.054-.04-.122-.1-.033-.022-.079-.069-.162-.134-.241-.207a5.563,5.563,0,0,1-.45-.475c-.033-.036-.061-.073-.09-.109s-.04-.051-.057-.076c0,0,.065.091.025.033-.065-.1-.14-.2-.209-.3a5.957,5.957,0,0,1-.335-.57c-.05-.094-.1-.189-.144-.287-.025-.051-.047-.105-.072-.156-.011-.022-.018-.044-.029-.069.033.076.025.062,0-.007a6.248,6.248,0,0,1-.216-.617c-.061-.211-.115-.424-.155-.639-.007-.044-.018-.091-.025-.134a.364.364,0,0,1-.014-.091s.014.131.007.058c-.011-.109-.025-.221-.029-.33a4.155,4.155,0,0,1,.011-.639c0-.058.025-.185,0-.055.007-.047.014-.1.025-.145.022-.12.05-.239.083-.359.029-.1.061-.2.094-.3.007-.025.068-.185.04-.105s0,0,.007-.011c.014-.029.025-.058.04-.087a3.979,3.979,0,0,1,.331-.577c.033-.047.065-.091.1-.134s-.025.033-.025.036l.043-.055c.076-.091.155-.181.234-.265s.144-.145.223-.211c.036-.033.072-.062.108-.091.014-.014.1-.08.029-.025s.018-.014.029-.022a4.548,4.548,0,0,1,.561-.348c.043-.022.086-.044.129-.062s.162-.065.047-.022c.1-.036.209-.08.317-.112s.216-.062.327-.087c.047-.011.1-.022.144-.029s.216-.029.076-.014a5.05,5.05,0,0,1,.7-.025l.151.011.1.011c.014,0,.1.011.014,0s.09.014.112.018c.057.011.112.022.166.036a2.906,2.906,0,0,1,.3.083c.054.018.108.036.158.055a.517.517,0,0,1,.068.025s.147.055.057.022.079.036.1.047c.043.022.086.04.129.065.1.051.194.105.288.163s.184.124.274.189-.072-.062.022.018c.047.04.1.08.144.124a4.334,4.334,0,0,1,.453.479c.079.091-.054-.076.018.022.033.044.065.091.1.134.061.091.119.185.176.283s.1.181.14.276c.007.018.076.178.047.1s0,0,0,.014c.014.036.029.076.043.112a4.327,4.327,0,0,1,.169.635c0,.022.029.2.018.112s0,0,0,.014l.011.1c-.009.105-.005.221-.005.341a.63.63,0,1,0,1.259,0,4.816,4.816,0,0,0-3.63-4.641,4.765,4.765,0,0,0-5.336,2.515,5.085,5.085,0,0,0-.4,3.11,7.271,7.271,0,0,0,1.112,2.779,5.232,5.232,0,0,0,2.224,2,3.312,3.312,0,0,0,2.85-.112,5.515,5.515,0,0,0,2.094-2.072,7.37,7.37,0,0,0,1.04-2.921,4.978,4.978,0,0,0,.047-.657.628.628,0,1,0-1.256,0Z" transform="translate(-46.933 -48.851)" fill="#39fffc"/>
    <path id="Path_67500" data-name="Path 67500" d="M182.022,428.343v3.3H165.58v-3.3A4.237,4.237,0,0,1,169.8,424.1h.982l3.037,3.821,3.015-3.821h.982a4.13,4.13,0,0,1,1.486.276,4.238,4.238,0,0,1,2.72,3.97Z" transform="translate(-5.385 -185.606)" fill="#39fffc"/>
    <path id="Path_67501" data-name="Path 67501" d="M174.015,420.767v3.306l.63-.635H160.231c-.662,0-1.335-.033-2,0h-.029l.63.635v-3.306c0-.12,0-.236.014-.352,0-.025.018-.2.011-.112s0,0,0-.014c.007-.04.014-.08.022-.124a4.249,4.249,0,0,1,.2-.726c.007-.022.018-.044.025-.069.025-.087-.047.1-.007.018.025-.051.047-.1.068-.152a3.727,3.727,0,0,1,.18-.334c.057-.094.115-.189.18-.28l.054-.076c-.011.014-.083.105-.011.014.04-.047.079-.1.119-.145a4.636,4.636,0,0,1,.5-.493c.025-.022.05-.04.072-.058-.108.087-.04.029-.014.014.047-.033.09-.065.133-.094.1-.069.212-.138.32-.2s.209-.109.317-.16-.1.036.047-.018l.18-.065c.129-.044.263-.08.4-.112l.216-.044.072-.011c.158-.025-.09.007,0,0,.187-.014.37-.025.558-.025h.9c-.147-.062-.3-.124-.446-.185l2.655,3.342c.126.16.256.319.381.479a.626.626,0,0,0,.889,0l2.637-3.346.374-.475c-.147.062-.3.124-.446.185h.831c.158,0,.32,0,.479.011l.129.011c.018,0,.122.018.022,0,.072.011.144.025.219.04a4.04,4.04,0,0,1,.511.142l.187.069c.086.033-.094-.044-.011,0l.068.033c.129.062.256.127.378.2s.212.134.313.207l.079.058c-.018-.014-.1-.08-.011-.007l.151.131c.094.083.18.17.266.261.047.047.09.1.133.149s.155.2.072.087a5.186,5.186,0,0,1,.4.664c.022.04.108.239.05.1.025.062.05.127.072.189.05.145.094.294.129.443.018.076.033.152.047.229a.612.612,0,0,0,.014.076c.029.17-.011-.134.007.04a3.179,3.179,0,0,1,.036.483.63.63,0,1,0,1.259,0,4.871,4.871,0,0,0-3.476-4.685,5.83,5.83,0,0,0-1.7-.2c-.353,0-.849-.08-1.108.207-.133.145-.245.312-.367.464-.507.642-1.015,1.288-1.522,1.93-.37.468-.738.936-1.108,1.4h.889c-.518-.649-1.036-1.3-1.554-1.952l-1.058-1.328c-.241-.3-.45-.7-.874-.726-.223-.014-.453,0-.68,0a6.558,6.558,0,0,0-.8.029,4.968,4.968,0,0,0-2.558,1.071,4.89,4.89,0,0,0-1.518,2.184,5.392,5.392,0,0,0-.266,1.807v3.1a.64.64,0,0,0,.63.635h14.413c.666,0,1.335.018,2,0h.029a.64.64,0,0,0,.63-.635v-3.306a.628.628,0,1,0-1.255,0Z" transform="translate(2 -178.031)" fill="#39fffc"/>
    <path id="Path_67502" data-name="Path 67502" d="M402.456,235.756c0,2.794-2.249,6.622-5.019,6.622s-5.019-3.825-5.019-6.622a5.019,5.019,0,1,1,10.038,0Z" transform="translate(-216.559 -7.377)" fill="#39fffc"/>
    <path id="Path_67503" data-name="Path 67503" d="M394.555,228.379a3.246,3.246,0,0,1-.05.747c.039-.17,0,.011-.011.058s-.022.124-.033.181c-.025.138-.057.276-.09.414a7.589,7.589,0,0,1-.237.784c-.043.124-.094.243-.14.367.054-.142-.014.036-.033.076-.033.076-.068.149-.1.225a9.054,9.054,0,0,1-.86,1.426c.09-.124-.025.029-.05.062-.039.051-.079.1-.122.149-.094.109-.187.214-.284.316s-.176.174-.266.258c-.047.04-.09.08-.137.12s-.219.174-.083.073a4.81,4.81,0,0,1-.63.406c-.05.025-.1.055-.155.076-.025.011-.05.025-.079.036-.108.051.029-.007.033-.014-.061.069-.274.1-.36.127a2.536,2.536,0,0,1-.327.076c.007,0-.083.011-.083.014,0-.014.14-.014.043-.007a1.991,1.991,0,0,1-.209.014c-.112,0-.227,0-.338,0a1.6,1.6,0,0,0-.166-.018c.011-.018.14.022.043,0l-.122-.022a3.328,3.328,0,0,1-.324-.083c-.054-.018-.108-.036-.158-.055a.709.709,0,0,0-.079-.029c-.137-.051.126.062-.007,0a4.879,4.879,0,0,1-.644-.363c-.05-.033-.1-.069-.144-.1-.025-.018-.047-.036-.072-.055.014.011.108.087.022.014-.1-.087-.209-.178-.309-.272a6.483,6.483,0,0,1-.547-.584c-.039-.051-.079-.1-.119-.149-.018-.022-.068-.1.011.014-.018-.025-.039-.051-.057-.076-.086-.116-.169-.239-.248-.359-.151-.232-.291-.475-.421-.722-.061-.116-.119-.236-.173-.356-.029-.058-.054-.12-.079-.181-.014-.029-.025-.062-.04-.091.061.149,0-.007-.011-.029-.1-.258-.191-.515-.266-.78s-.133-.519-.18-.78c-.011-.062-.018-.12-.029-.181-.007-.036-.033-.112,0,.033a.766.766,0,0,1-.011-.091c-.014-.124-.025-.25-.033-.377a5.116,5.116,0,0,1,.022-.813l.011-.1c.011-.1-.029.156,0,0,.011-.065.022-.131.036-.2.025-.134.061-.272.1-.4s.079-.261.129-.392c.014-.04.094-.214.025-.073.029-.065.057-.131.09-.2a5.6,5.6,0,0,1,.407-.7l.054-.076c.011-.018.072-.1.022-.029s.011-.011.022-.029.05-.062.076-.091c.086-.1.176-.2.27-.3s.191-.189.291-.276c.047-.04.1-.08.144-.12.025-.018.1-.069-.014.011.033-.022.065-.047.094-.069a4.906,4.906,0,0,1,.687-.417c.057-.029.115-.055.173-.083.144-.065-.079.029.068-.029s.27-.1.407-.142.248-.069.374-.1l.216-.044a.82.82,0,0,1,.1-.014c-.083.014-.072.007,0,0a5.151,5.151,0,0,1,.853-.025c.065,0,.133.007.2.014l.1.011c.022,0,.126.018.039,0s.018,0,.04.007a.985.985,0,0,1,.1.018c.079.014.158.033.237.051.126.029.248.065.374.105.061.018.122.04.184.062l.09.033.079.033c-.079-.036.014.007.033.014s.057.025.086.04c.057.029.115.055.169.087.119.062.234.131.349.2s.219.152.331.229c.072.051-.083-.069-.014-.011.025.022.05.04.072.058.054.044.108.091.162.138a5.212,5.212,0,0,1,.55.58c.022.025.039.051.057.073-.09-.112-.022-.025,0,0,.036.051.072.1.108.156.076.112.144.225.212.345s.126.239.184.363c.014.029.025.058.04.087.039.08-.04-.105-.007-.018.025.069.054.134.076.2a5.163,5.163,0,0,1,.212.8c.007.051.033.221.014.076.011.076.018.149.025.225.011.135.015.276.019.421a.638.638,0,0,0,.63.635.645.645,0,0,0,.63-.635,5.841,5.841,0,0,0-1.277-3.6,5.586,5.586,0,0,0-3.047-1.934,5.714,5.714,0,0,0-3.81.424,5.653,5.653,0,0,0-2.551,2.54,6.069,6.069,0,0,0-.5,3.716,8.756,8.756,0,0,0,1.342,3.375,6.318,6.318,0,0,0,2.576,2.366,3.915,3.915,0,0,0,1.731.37,4.1,4.1,0,0,0,1.713-.461,6.617,6.617,0,0,0,2.526-2.5,8.862,8.862,0,0,0,1.245-3.5,6.462,6.462,0,0,0,.054-.791.628.628,0,1,0-1.256,0Z" transform="translate(-209.287 0)" fill="#39fffc"/>
    <path id="Path_67504" data-name="Path 67504" d="M361.027,407.527v4.042h-16.3v-3.3a4.254,4.254,0,0,0-2.717-3.98,5.138,5.138,0,0,1,4.037-1.974h1.205l3.717,4.677,3.688-4.673h1.205a5.2,5.2,0,0,1,5.163,5.21Z" transform="translate(-170.074 -165.531)" fill="#39fffc"/>
    <path id="Path_67505" data-name="Path 67505" d="M353,400.271v4.046l.63-.635H339.361c-.659,0-1.324-.033-1.979,0h-.029l.63.635v-2.565c0-.334.011-.675-.007-1.009a4.886,4.886,0,0,0-.856-2.515,5.021,5.021,0,0,0-2.317-1.8c.094.352.184.708.277,1.059a5.836,5.836,0,0,1,.468-.519c.076-.076.158-.149.237-.218l.1-.087c-.057.044.014-.011.022-.014l.086-.065a5.081,5.081,0,0,1,.594-.37q.146-.076.291-.142c.112-.051-.065.022.05-.022.068-.025.137-.055.205-.076a5.252,5.252,0,0,1,.662-.185c.065-.014.126-.025.191-.036.043-.007.166-.022.054-.011.122-.011.245-.025.367-.033.241-.011.479-.007.72-.007h.741c-.147-.062-.3-.124-.446-.185q1.625,2.047,3.249,4.089c.155.2.313.392.468.588a.626.626,0,0,0,.889,0l3.224-4.089.464-.588c-.147.062-.3.124-.446.185h1.1a6.026,6.026,0,0,1,.676.033c.039,0,.155.022,0,0,.04.007.083.011.122.018.079.014.162.029.241.047.166.036.331.083.489.134.076.025.151.051.227.08l.133.055c-.018-.007-.122-.055-.018-.007.158.073.313.152.468.239a4.619,4.619,0,0,1,.4.258c.032.025.227.174.1.073.072.058.147.12.216.181a5.56,5.56,0,0,1,.648.69c-.1-.127.043.062.072.1.047.065.09.131.133.2q.14.223.259.457c.043.087.083.174.122.261-.057-.127-.018-.047-.007-.018.022.062.047.12.068.181a5.254,5.254,0,0,1,.155.512c.022.094.043.192.061.29.007.04.014.08.022.124.029.17-.007-.08.007.055.015.207.026.406.029.61a.638.638,0,0,0,.63.635.645.645,0,0,0,.63-.635,5.827,5.827,0,0,0-4.015-5.552,6.144,6.144,0,0,0-1.936-.28h-.755a.893.893,0,0,0-.73.189c-.144.156-.27.341-.4.508q-.94,1.2-1.882,2.391c-.468.591-.935,1.187-1.4,1.778h.889q-1.241-1.557-2.479-3.117c-.392-.49-.781-.983-1.173-1.473-.022-.029-.043-.058-.068-.087a.863.863,0,0,0-.7-.185c-.356,0-.712-.007-1.068,0a5.775,5.775,0,0,0-4.364,2.148.646.646,0,0,0,.277,1.059c.022.007.18.076.036.011l.137.062c.076.036.151.076.223.116a4.246,4.246,0,0,1,.5.327c-.122-.094.011.011.029.025s.065.055.094.08c.068.062.133.124.2.189s.115.12.169.181c.033.036.065.076.1.112s.043.051.061.076c-.047-.062-.05-.065-.007-.007.1.152.205.3.3.464.039.073.079.149.115.225.011.022.079.178.018.033l.054.142a4.027,4.027,0,0,1,.158.541c.022.1.04.2.057.308-.025-.134,0-.044,0-.011.007.069.014.142.018.211.018.316.007.635.007.947v2.627a.64.64,0,0,0,.63.635h14.273c.659,0,1.32.018,1.979,0h.029a.64.64,0,0,0,.63-.635v-4.046a.638.638,0,0,0-.63-.635.655.655,0,0,0-.619.642Z" transform="translate(-162.692 -158.275)" fill="#39fffc"/>
  </g>
</svg>
