<svg xmlns="http://www.w3.org/2000/svg" width="14.922" height="16" viewBox="0 0 14.922 16"><defs><style>.a,.b{fill:#e0e0e0;stroke-miterlimit:10;}.b{stroke:#fff;}.c,.d{stroke:none;}.d{fill:#fff;}.e{fill:none;}</style></defs><g transform="translate(-895.442 -468.33)"><g class="a" transform="translate(0 -2.804)"><path class="c" d="M 903.63623046875 486.6342163085938 L 899.9144287109375 486.6342163085938 L 899.9144287109375 476.2150573730469 L 899.9144287109375 475.7150573730469 L 899.4144287109375 475.7150573730469 L 895.9417724609375 475.7150573730469 L 895.9417724609375 471.9932556152344 L 899.4144287109375 471.9932556152344 L 903.63623046875 471.9932556152344 L 903.63623046875 476.2150573730469 L 903.63623046875 486.6342163085938 Z"/><path class="d" d="M 896.4417724609375 472.4932556152344 L 896.4417724609375 475.2150573730469 L 899.4144287109375 475.2150573730469 L 900.4144287109375 475.2150573730469 L 900.4144287109375 476.2150573730469 L 900.4144287109375 486.1342163085938 L 903.13623046875 486.1342163085938 L 903.13623046875 476.2150573730469 L 903.13623046875 472.4932556152344 L 899.4144287109375 472.4932556152344 L 896.4417724609375 472.4932556152344 M 895.4417724609375 471.4932556152344 L 899.4144287109375 471.4932556152344 L 904.13623046875 471.4932556152344 L 904.13623046875 476.2150573730469 L 904.13623046875 487.1342163085938 L 899.4144287109375 487.1342163085938 L 899.4144287109375 476.2150573730469 L 895.4417724609375 476.2150573730469 L 895.4417724609375 471.4932556152344 Z"/></g><g class="b" transform="translate(904.946 469.086) rotate(-9.217)"><circle class="c" cx="2.361" cy="2.361" r="2.361"/><circle class="e" cx="2.361" cy="2.361" r="1.861"/></g></g></svg>