<svg xmlns="http://www.w3.org/2000/svg" width="24" height="24" viewBox="0 0 24 24">
  <g id="unknown" transform="translate(-201.23 -201.23)">
    <path id="Path_71093" data-name="Path 71093" d="M213.23,225.23a12,12,0,1,1,12-12A12.013,12.013,0,0,1,213.23,225.23Zm0-21.967a9.968,9.968,0,1,0,9.968,9.968,9.979,9.979,0,0,0-9.968-9.968Z" fill="#fff"/>
    <path id="Path_71094" data-name="Path 71094" d="M355.079,443.19a1.424,1.424,0,1,1-1.424-1.424,1.424,1.424,0,0,1,1.424,1.424" transform="translate(-140.634 -224.02)" fill="#fff"/>
    <path id="Path_71095" data-name="Path 71095" d="M319.807,277.525h-2.237v-2.738l.556-.323c2.12-1.237,3.032-2.469,2.788-3.767a2.074,2.074,0,0,0-.973-1.495,2.029,2.029,0,0,0-1.673-.141,3.289,3.289,0,0,0-1.506,1.647l-2.076-.829a5.391,5.391,0,0,1,2.826-2.921,4.2,4.2,0,0,1,5.6,3.327c.4,2.159-.706,4.1-3.3,5.772Z" transform="translate(-105.668 -60.984)" fill="#fff"/>
  </g>
</svg>
