<svg viewBox="0 0 121 120" fill="none" xmlns="http://www.w3.org/2000/svg">
    <rect x="0.5" width="120" height="120" rx="60" fill="#34D198"/>
    <path d="M91.5052 60.2841C91.4642 58.6979 91.4192 57.1999 91.4192 55.7086V28.0297H33.0594L44.3806 34.0475H85.2911V55.7077C85.2911 57.2833 85.3361 58.8925 85.38 60.4461C85.5422 66.346 85.7093 72.4462 83.4699 77.5501C79.5949 86.3778 70.7671 92.0849 60.9916 92.0849C49.0832 92.0849 39.1387 84.5739 36.2456 73.3947C35.3838 70.0564 35.4972 66.6097 35.6203 62.9549C35.6613 61.666 35.7024 60.3349 35.7024 58.998V44.6436L29.5742 41.4616V59C29.5742 60.239 29.5293 61.5222 29.4922 62.7612C29.3622 66.6692 29.2313 70.7123 30.3061 74.8773C33.8958 88.7676 46.2341 98.1027 60.9906 98.1027C73.2195 98.1027 84.2525 90.9695 89.0958 79.9313C91.8755 73.6124 91.687 66.836 91.5052 60.2841Z"
          fill="white"/>
    <path d="M42.3776 68.6917C42.3776 68.8068 42.3845 68.919 42.3982 69.0341C43.0508 74.7162 47.7114 85.4744 60.6819 85.4744C73.8449 85.4744 77.6163 74.5503 77.7746 68.7732C77.7746 68.7464 77.7785 68.7205 77.7785 68.6917V42.2978C77.7785 40.6349 76.4048 39.2856 74.7105 39.2856H54.2352L65.5535 45.3053H71.6474V68.6409C71.5918 69.8665 70.8707 79.4557 60.6829 79.4557C50.5498 79.4557 48.75 70.1811 48.5058 68.498V51.2953L42.4363 48.1401C42.4021 48.3223 42.3776 48.5084 42.3776 48.7021V68.6917Z"
          fill="white"/>
    <path d="M42.446 48.0816C42.4363 48.1008 42.4431 48.1229 42.4363 48.1401L48.5058 51.2953L42.446 48.0816Z"
          fill="white"/>
</svg>
