<svg xmlns="http://www.w3.org/2000/svg" width="16" height="16" viewBox="0 0 16 16"><defs><style>.a,.b{fill:#fff;stroke-miterlimit:10;}.b{fill-rule:evenodd;}.c,.d{stroke:none;}.d{fill:#fff;}</style></defs><g transform="translate(1020.366 -416.088)"><g transform="translate(-1020.366 416.088)"><g class="a" transform="translate(1020.366 -416.088)"><path class="c" d="M-1012.366,432.088a7.95,7.95,0,0,1-3.114-.629,7.972,7.972,0,0,1-2.543-1.714,7.973,7.973,0,0,1-1.714-2.543,7.951,7.951,0,0,1-.629-3.114,7.951,7.951,0,0,1,.629-3.114,7.972,7.972,0,0,1,1.714-2.543,7.973,7.973,0,0,1,2.543-1.714,7.95,7.95,0,0,1,3.114-.629,7.95,7.95,0,0,1,3.114.629,7.974,7.974,0,0,1,2.543,1.714,7.973,7.973,0,0,1,1.714,2.543,7.951,7.951,0,0,1,.629,3.114,7.951,7.951,0,0,1-.629,3.114,7.974,7.974,0,0,1-1.714,2.543,7.973,7.973,0,0,1-2.543,1.714A7.951,7.951,0,0,1-1012.366,432.088Zm0-15.6a7.553,7.553,0,0,0-2.958.6,7.574,7.574,0,0,0-2.416,1.629,7.575,7.575,0,0,0-1.629,2.416,7.553,7.553,0,0,0-.6,2.958,7.553,7.553,0,0,0,.6,2.958,7.576,7.576,0,0,0,1.629,2.416,7.575,7.575,0,0,0,2.416,1.629,7.552,7.552,0,0,0,2.958.6,7.552,7.552,0,0,0,2.958-.6,7.575,7.575,0,0,0,2.416-1.629,7.576,7.576,0,0,0,1.629-2.416,7.553,7.553,0,0,0,.6-2.958,7.553,7.553,0,0,0-.6-2.958,7.575,7.575,0,0,0-1.629-2.416,7.574,7.574,0,0,0-2.416-1.629A7.553,7.553,0,0,0-1012.366,416.488Z"/><path class="d" d="M -1012.366027832031 432.0880126953125 C -1013.445922851562 432.0880126953125 -1014.493591308594 431.8764343261719 -1015.480041503906 431.459228515625 C -1016.432678222656 431.0563049316406 -1017.288208007812 430.4795227050781 -1018.022827148438 429.744873046875 C -1018.757507324219 429.0102233886719 -1019.334289550781 428.1546936035156 -1019.737243652344 427.2020263671875 C -1020.154418945312 426.2156066894531 -1020.366027832031 425.1679077148438 -1020.366027832031 424.0880126953125 C -1020.366027832031 423.0081176757812 -1020.154418945312 421.9603881835938 -1019.737243652344 420.9739990234375 C -1019.334289550781 420.0213012695312 -1018.757507324219 419.1658020019531 -1018.022827148438 418.43115234375 C -1017.288208007812 417.6965026855469 -1016.432678222656 417.1197204589844 -1015.480041503906 416.7167663574219 C -1014.493591308594 416.299560546875 -1013.445922851562 416.0880126953125 -1012.366027832031 416.0880126953125 C -1011.286071777344 416.0880126953125 -1010.238403320312 416.299560546875 -1009.251953125 416.7167663574219 C -1008.29931640625 417.1197204589844 -1007.443786621094 417.6965026855469 -1006.709106445312 418.43115234375 C -1005.974487304688 419.1658020019531 -1005.397705078125 420.0213012695312 -1004.994750976562 420.9739990234375 C -1004.577575683594 421.9603881835938 -1004.366027832031 423.0081176757812 -1004.366027832031 424.0880126953125 C -1004.366027832031 425.1679077148438 -1004.577575683594 426.2156066894531 -1004.994750976562 427.2020263671875 C -1005.397705078125 428.1546936035156 -1005.974487304688 429.0102233886719 -1006.709106445312 429.744873046875 C -1007.443786621094 430.4795227050781 -1008.29931640625 431.0563049316406 -1009.251953125 431.459228515625 C -1010.238403320312 431.8764343261719 -1011.286071777344 432.0880126953125 -1012.366027832031 432.0880126953125 Z M -1012.366027832031 416.4877624511719 C -1013.39208984375 416.4877624511719 -1014.387390136719 416.6886901855469 -1015.324279785156 417.0849304199219 C -1016.229309082031 417.4677124023438 -1017.042114257812 418.0157470703125 -1017.740173339844 418.7138366699219 C -1018.438232421875 419.4118957519531 -1018.986267089844 420.2247009277344 -1019.369079589844 421.1297302246094 C -1019.765319824219 422.0665893554688 -1019.966247558594 423.0618896484375 -1019.966247558594 424.0880126953125 C -1019.966247558594 425.1141052246094 -1019.765319824219 426.1094360351562 -1019.369079589844 427.0462951660156 C -1018.986267089844 427.9512939453125 -1018.438232421875 428.7641296386719 -1017.740173339844 429.4621887207031 C -1017.042114257812 430.1602478027344 -1016.229309082031 430.7082824707031 -1015.324279785156 431.091064453125 C -1014.387390136719 431.4873352050781 -1013.39208984375 431.688232421875 -1012.366027832031 431.688232421875 C -1011.339904785156 431.688232421875 -1010.344543457031 431.4873352050781 -1009.40771484375 431.091064453125 C -1008.502685546875 430.7082824707031 -1007.689880371094 430.1602478027344 -1006.991821289062 429.4621887207031 C -1006.293762207031 428.7641296386719 -1005.745727539062 427.9512939453125 -1005.362915039062 427.0462951660156 C -1004.966674804688 426.1094360351562 -1004.765747070312 425.1141357421875 -1004.765747070312 424.0880126953125 C -1004.765747070312 423.0618896484375 -1004.966674804688 422.0665893554688 -1005.362915039062 421.1297302246094 C -1005.745727539062 420.2247009277344 -1006.293762207031 419.4118957519531 -1006.991821289062 418.7138366699219 C -1007.689880371094 418.0157470703125 -1008.502685546875 417.4677124023438 -1009.40771484375 417.0849304199219 C -1010.344543457031 416.6886901855469 -1011.339904785156 416.4877624511719 -1012.366027832031 416.4877624511719 Z"/></g></g><g transform="translate(-1018.218 422.489)"><g class="b" transform="translate(912.969 -736.178)"><path class="c" d="M -910.5949096679688 741.1005249023438 L -912.468994140625 740.0151977539062 L -912.468994140625 737.84130859375 L -910.5949096679688 736.7559814453125 L -908.7279663085938 737.8408203125 L -908.7279663085938 740.0156860351562 L -910.5949096679688 741.1005249023438 Z"/><path class="d" d="M -910.5953369140625 737.3340454101562 L -911.968994140625 738.1295776367188 L -911.968994140625 739.7269287109375 L -910.5953369140625 740.5225219726562 L -909.2279663085938 739.7279052734375 L -909.2279663085938 738.1286010742188 L -910.5953369140625 737.3340454101562 M -910.594482421875 736.177978515625 L -908.2279663085938 737.5531005859375 L -908.2279663085938 740.3034057617188 L -910.594482421875 741.6785888671875 L -912.968994140625 740.3034057617188 L -912.968994140625 737.5531005859375 L -910.594482421875 736.177978515625 Z"/></g></g><g transform="translate(-1011.247 422.489)"><g class="b" transform="translate(564.344 -736.178)"><path class="c" d="M -561.9698486328125 741.1005249023438 L -563.843994140625 740.0151977539062 L -563.843994140625 737.84130859375 L -561.9698486328125 736.7559814453125 L -560.1029052734375 737.8408203125 L -560.1029052734375 740.0156860351562 L -561.9698486328125 741.1005249023438 Z"/><path class="d" d="M -561.9702758789062 737.3340454101562 L -563.343994140625 738.1295776367188 L -563.343994140625 739.7269287109375 L -561.9702758789062 740.5225219726562 L -560.6029052734375 739.7279052734375 L -560.6029052734375 738.1286010742188 L -561.9702758789062 737.3340454101562 M -561.9694213867188 736.177978515625 L -559.6029052734375 737.5531005859375 L -559.6029052734375 740.3034057617188 L -561.9694213867188 741.6785888671875 L -564.343994140625 740.3034057617188 L -564.343994140625 737.5531005859375 L -561.9694213867188 736.177978515625 Z"/></g></g><g transform="translate(-1015.364 419.707)"><g class="b" transform="translate(770.241 -597.047)"><path class="c" d="M -767.24169921875 603.464111328125 L -767.59033203125 603.2601928710938 L -767.59033203125 601.028564453125 L -767.59033203125 600.7405395507812 L -767.8394775390625 600.5960083007812 L -769.7410278320312 599.4932861328125 L -769.7410278320312 599.0849609375 L -767.2425537109375 597.6258544921875 L -764.7367553710938 599.0853881835938 L -764.7367553710938 599.4932861328125 L -766.6382446289062 600.5960083007812 L -766.8873901367188 600.7405395507812 L -766.8873901367188 601.028564453125 L -766.8873901367188 603.2588500976562 L -767.24169921875 603.464111328125 Z"/><path class="d" d="M -767.2421875 598.2046508789062 L -769.0977783203125 599.288330078125 L -767.5886840820312 600.1635131835938 L -767.2388305664062 600.3663330078125 L -766.8890991210938 600.1635131835938 L -765.380859375 599.288818359375 L -767.2421875 598.2046508789062 M -767.2428588867188 597.0469970703125 L -764.2367553710938 598.7979736328125 L -764.2367553710938 599.7813110351562 L -766.3873901367188 601.028564453125 L -766.3873901367188 603.5469970703125 L -767.2428588867188 604.0426635742188 L -768.09033203125 603.5469970703125 L -768.09033203125 601.028564453125 L -770.2410278320312 599.7813110351562 L -770.2410278320312 598.7979736328125 L -767.2428588867188 597.0469970703125 Z"/></g></g></g></svg>