<svg xmlns="http://www.w3.org/2000/svg" width="32" height="32.001" viewBox="0 0 32 32.001">
  <path id="Subtraction_1" data-name="Subtraction 1" d="M23243.92,2696a16,16,0,1,1,11.314-4.686A15.894,15.894,0,0,1,23243.92,2696Zm3.619-16.041c2.066,0,2.066,1.964,2.066,3.4v6.24h3.975v-7.028c0-3.177-.576-6.118-4.77-6.118l-.158,0a4.2,4.2,0,0,0-3.611,2.075h-.053v-1.751h-3.812V2689.6h3.975v-6.345C23245.15,2681.624,23245.436,2679.96,23247.539,2679.96Zm-12.836-3.188h0V2689.6h3.98v-12.825h-3.98Zm1.984-6.374a2.312,2.312,0,1,0,2.3,2.312A2.312,2.312,0,0,0,23236.688,2670.4Z" transform="translate(-23227.92 -2664)" fill="#fff"/>
</svg>
