<svg width="32" height="32" viewBox="0 0 32 32" fill="none" xmlns="http://www.w3.org/2000/svg">
<path d="M16 0C12.8355 0 9.74207 0.938384 7.11089 2.69649C4.4797 4.45459 2.42894 6.95345 1.21794 9.87706C0.00693261 12.8007 -0.309921 16.0177 0.307443 19.1214C0.924807 22.2251 2.44866 25.0761 4.6863 27.3137C6.92394 29.5514 9.77487 31.0752 12.8786 31.6926C15.9823 32.3099 19.1993 31.9931 22.123 30.7821C25.0466 29.5711 27.5454 27.5203 29.3035 24.8891C31.0616 22.2579 32 19.1645 32 16C32 11.7565 30.3143 7.68687 27.3137 4.68629C24.3131 1.68571 20.2435 0 16 0V0ZM26 8.41818L24.4037 9.94364C24.3355 9.99415 24.2825 10.0624 24.2504 10.1409C24.2184 10.2195 24.2085 10.3053 24.2218 10.3891V21.6127C24.2086 21.6962 24.2186 21.7818 24.2507 21.86C24.2827 21.9382 24.3356 22.0061 24.4037 22.0564L25.9618 23.5836V23.9164H18.12V23.5818L19.7364 22.0182C19.8927 21.8618 19.8927 21.8127 19.8927 21.5727V12.5055L15.4 23.8873H14.7909L9.56547 12.5055V20.1418C9.54325 20.3 9.55778 20.4612 9.60791 20.6128C9.65805 20.7645 9.74244 20.9026 9.85456 21.0164L11.9546 23.5618V23.8964H6.00001V23.5673L8.10001 21.0218C8.21194 20.9059 8.29433 20.7648 8.34022 20.6104C8.38611 20.456 8.39414 20.2927 8.36365 20.1345V11.3145C8.37499 11.1936 8.35807 11.0717 8.31421 10.9584C8.27035 10.8451 8.20075 10.7436 8.11092 10.6618L6.25274 8.41818V8.08364H12.0491L16.5309 17.8909L20.4709 8.08364H26V8.41818Z" fill="#FFFFFF"/>
</svg>
