<svg width="32" height="32" viewBox="0 0 32 32" fill="none" xmlns="http://www.w3.org/2000/svg">
<path d="M22.4233 11.3367L14.3087 17.9694L13.9269 18.2821C13.843 18.3486 13.7883 18.4451 13.7742 18.5512L13.6887 19.2567L13.4542 21.2385C13.4563 21.2626 13.4488 21.2866 13.4333 21.3052C13.4178 21.3237 13.3956 21.3354 13.3714 21.3376C13.3473 21.3397 13.3233 21.3322 13.3048 21.3167C13.2862 21.3012 13.2745 21.2789 13.2723 21.2548L12.6124 19.273L11.9305 17.2457C11.9014 17.1549 11.9052 17.0567 11.941 16.9683C11.9769 16.88 12.0427 16.807 12.1269 16.7621L20.5705 11.9221L22.1596 11.013C22.3905 10.8785 22.6269 11.1694 22.4233 11.3367Z" fill="#FFFFFF"/>
<path d="M16 0C12.8355 0 9.74207 0.938384 7.11089 2.69649C4.4797 4.45459 2.42894 6.95345 1.21794 9.87706C0.00693261 12.8007 -0.309921 16.0177 0.307443 19.1214C0.924807 22.2251 2.44866 25.0761 4.6863 27.3137C6.92394 29.5514 9.77487 31.0752 12.8786 31.6926C15.9823 32.3099 19.1993 31.9931 22.123 30.7821C25.0466 29.5711 27.5454 27.5203 29.3035 24.8891C31.0616 22.2579 32 19.1645 32 16C32 11.7565 30.3143 7.68687 27.3137 4.68629C24.3131 1.68571 20.2435 0 16 0V0ZM25.98 9.26182L22.8564 23.0636C22.7091 23.7109 21.8873 24.0036 21.3109 23.6091L16.5946 20.4091L14.1927 22.68C14.0948 22.7719 13.9759 22.8385 13.8464 22.8741C13.7169 22.9096 13.5807 22.913 13.4495 22.884C13.3184 22.855 13.1963 22.7944 13.0939 22.7075C12.9915 22.6207 12.9118 22.5101 12.8618 22.3855L11.9946 19.84L11.1273 17.2945L6.47819 16.0218C6.3482 15.9934 6.23123 15.9229 6.14546 15.8212C6.0597 15.7195 6.00994 15.5923 6.00393 15.4594C5.99791 15.3264 6.03598 15.1953 6.11221 15.0862C6.18845 14.9772 6.29857 14.8964 6.42546 14.8564L24.3855 8.38545L24.7164 8.26727C25.4127 8.02364 26.1327 8.58727 25.98 9.26182Z" fill="#FFFFFF"/>
</svg>
