<svg width="32" height="32" viewBox="0 0 32 32" fill="none" xmlns="http://www.w3.org/2000/svg">
<path d="M16 0.375C7.37056 0.375 0.375 7.37056 0.375 16C0.375 24.6294 7.37056 31.625 16 31.625C24.6294 31.625 31.625 24.6294 31.625 16C31.625 7.37056 24.6294 0.375 16 0.375ZM24.5043 11.7611C24.5043 15.7849 22.8262 19.6048 19.5276 22.02C15.4364 25.0151 9.57131 25.1307 5.28025 22.4814C7.48181 22.9134 10.0302 22.0396 11.7836 20.7298C10.873 20.729 9.98514 20.4454 9.24264 19.9182C8.50014 19.3911 7.93966 18.6463 7.63863 17.7869C8.28325 17.9449 9 17.8423 9.63962 17.7169C7.62275 17.3638 6.12444 15.5551 6.13781 13.5128C6.74184 13.8773 7.43343 14.071 8.13888 14.0733C6.99512 13.3726 6.20931 12.0413 6.20931 10.5699C6.21245 9.83128 6.40962 9.10641 6.78106 8.46794C8.92481 10.9904 12.2123 12.672 15.8571 12.8822C15.2991 10.1479 17.3089 7.62712 20.1449 7.62712C21.4313 7.62712 22.5747 8.11756 23.3609 8.95837C24.3614 8.74819 26.148 7.90737 26.148 7.90737C25.7907 8.95837 25.076 9.72913 24.2185 10.2897C25.076 10.1496 25.9336 9.93969 26.7197 9.589C26.0903 10.4164 25.344 11.1481 24.5043 11.7611Z" fill="#FFFFFF"/>
</svg>
