<svg xmlns="http://www.w3.org/2000/svg" width="31.24" height="31.241" viewBox="0 0 31.24 31.241">
  <g id="Group_69470" data-name="Group 69470" transform="translate(-260.555 -633.716)">
    <path id="Path_44811" data-name="Path 44811" d="M273.873,652.7v0l5.89-3.351L273.873,646Z" fill="#FFFFFF"/>
    <path id="Path_44812" data-name="Path 44812" d="M276.183,633.716h-.008a15.616,15.616,0,1,0,.008,0Zm10.79,21.1a2.789,2.789,0,0,1-1.993,1.972c-1.757.474-8.805.474-8.805.474s-7.047,0-8.8-.474a2.789,2.789,0,0,1-1.993-1.973,31.882,31.882,0,0,1,0-10.92,2.834,2.834,0,0,1,1.993-2.005c1.757-.474,8.8-.474,8.8-.474s7.047,0,8.805.474a2.834,2.834,0,0,1,1.993,2.005h0a31.882,31.882,0,0,1,0,10.92Z" fill="#FFFFFF"/>
  </g>
</svg>
