<svg xmlns="http://www.w3.org/2000/svg" xmlns:xlink="http://www.w3.org/1999/xlink" width="127.559" height="24" viewBox="0 0 127.559 24">
  <defs>
    <linearGradient id="linear-gradient" gradientTransform="rotate(15)"  gradientUnits="objectBoundingBox">
      <stop offset="0.2" stop-color="#ff9833"/>
      <stop offset="0.7" stop-color="#ff00b8"/>
    </linearGradient>
  </defs>
  <g id="Group_113078" data-name="Group 113078" transform="translate(-4913.495 3469.737)">
    <g id="Group_77843" data-name="Group 77843" transform="translate(4913.495 -3469.737)">
      <g id="Group_77843-2" data-name="Group 77843-2" transform="translate(0 0)">
        <path id="Path_74947" data-name="Path 74947" d="M4922.3-3440.407a8.536,8.536,0,0,0-8.809,8.837,8.511,8.511,0,0,0,8.9,8.779c3.622,0,7-1.75,8.256-5.74h-4.542a3.9,3.9,0,0,1-3.744,2.118,4.183,4.183,0,0,1-4.389-4.051h12.951C4931.356-3436.019,4927.889-3440.407,4922.3-3440.407Zm-4.114,6.721a4.091,4.091,0,0,1,4.083-3.1,3.93,3.93,0,0,1,3.99,3.1Z" transform="translate(-4913.495 3446.791)" fill="#04081f"/>
        <path id="Path_74948" data-name="Path 74948" d="M5007.843-3426.842c-2.579,0-4.36-1.933-4.329-4.758-.031-2.793,1.689-4.756,4.36-4.756a3.8,3.8,0,0,1,3.9,2.731h4.513c-.644-4.3-4.3-6.782-8.408-6.782a8.582,8.582,0,0,0-8.809,8.807,8.577,8.577,0,0,0,8.779,8.809c4.05,0,7.764-2.364,8.438-6.813h-4.512A3.841,3.841,0,0,1,5007.843-3426.842Z" transform="translate(-4980.439 3446.791)" fill="#04081f"/>
        <path id="Path_74949" data-name="Path 74949" d="M5124.924-3384.607h-5.618l-5.542-6.522h5.659Z" transform="translate(-5070.173 3408.239)" fill="#04081f"/>
        <path id="Path_74950" data-name="Path 74950" d="M5100.723-3462.985l-7.7,8.041-2.934,2.927-1.363,1.361v4.551h-4.39v-23.632h4.39v13.781l6.415-7.029Z" transform="translate(-5047.147 3469.737)" fill="#04081f"/>
        <path id="Path_74951" data-name="Path 74951" d="M5164.021-3440.407a8.648,8.648,0,0,0-8.776,8.807,8.629,8.629,0,0,0,8.776,8.809,8.62,8.62,0,0,0,8.809-8.809A8.655,8.655,0,0,0,5164.021-3440.407Zm0,13.443a4.336,4.336,0,0,1-4.358-4.636,4.351,4.351,0,0,1,4.358-4.634,4.352,4.352,0,0,1,4.36,4.634A4.338,4.338,0,0,1,5164.021-3426.964Z" transform="translate(-5102.624 3446.791)" fill="#04081f"/>
      </g>
    </g>
    <path id="Path_143790" data-name="Path 143790" d="M5252.486-3459.738a10.729,10.729,0,0,1,7.824,3.078,10.267,10.267,0,0,1,3.138,7.64,10.268,10.268,0,0,1-3.138,7.64,10.734,10.734,0,0,1-7.824,3.078h-7.993v-21.436Zm0,16.475a5.616,5.616,0,0,0,4.149-1.608,5.613,5.613,0,0,0,1.608-4.149,5.6,5.6,0,0,0-1.608-4.165,5.645,5.645,0,0,0-4.149-1.593H5249.7v11.515Zm25.827-11.514h-7.82v3.185h6.9v4.961h-6.9v3.367h7.82v4.963h-13.026v-21.436h13.026ZM5300-3438.3h-6.186l-3.919-6.676-3.8,6.676h-6.186l6.859-11.146-6.522-10.289h6.186l3.613,6.155,3.614-6.155h6.186l-6.645,10.688Z" transform="translate(-258.951 -7.822)" fill="url(#linear-gradient)"/>
  </g>
</svg>
