<svg xmlns="http://www.w3.org/2000/svg" width="127.401" height="24.007" viewBox="0 0 127.401 24.007">
  <g id="Group_77825" data-name="Group 77825" transform="translate(-875.995 -792.002)">
    <g id="Group_77811" data-name="Group 77811" transform="translate(876 792)">
      <g id="Group_77808" data-name="Group 77808">
        <g id="Group_77806" data-name="Group 77806">
          <path id="Path_74888" data-name="Path 74888" d="M-2463.975-1663.672a8.536,8.536,0,0,0-6.324,2.505,8.536,8.536,0,0,0-2.485,6.332,8.511,8.511,0,0,0,2.53,6.336,8.511,8.511,0,0,0,6.37,2.443c3.622,0,7-1.75,8.256-5.74h-4.543a3.9,3.9,0,0,1-3.744,2.118,4.184,4.184,0,0,1-3.045-1.1,4.184,4.184,0,0,1-1.344-2.947h12.951C-2454.922-1659.284-2458.39-1663.672-2463.975-1663.672Zm-4.114,6.722a4.091,4.091,0,0,1,4.083-3.1,3.931,3.931,0,0,1,3.99,3.1Z" transform="translate(2472.784 1670.056)" fill="#04081f"/>
          <path id="Path_74889" data-name="Path 74889" d="M-2378.436-1650.107c-2.579,0-4.36-1.933-4.33-4.758-.03-2.793,1.689-4.756,4.36-4.756a3.8,3.8,0,0,1,3.9,2.732H-2370c-.644-4.3-4.3-6.783-8.408-6.783a8.581,8.581,0,0,0-6.3,2.51,8.581,8.581,0,0,0-2.511,6.3,8.576,8.576,0,0,0,2.5,6.289,8.575,8.575,0,0,0,6.281,2.52c4.051,0,7.764-2.364,8.439-6.813h-4.512a3.841,3.841,0,0,1-3.925,2.762Z" transform="translate(2405.84 1670.056)" fill="#04081f"/>
          <path id="Path_74890" data-name="Path 74890" d="M-2261.354-1607.873h-5.618l-5.542-6.522h5.659Z" transform="translate(2316.105 1631.505)" fill="#04081f"/>
          <path id="Path_74891" data-name="Path 74891" d="M-2285.553-1686.25l-7.7,8.041-2.934,2.927-1.363,1.36v4.551h-4.39V-1693h4.39v13.78l6.415-7.028Z" transform="translate(2339.13 1693.002)" fill="#04081f"/>
          <path id="Path_74892" data-name="Path 74892" d="M-2222.258-1663.672a8.649,8.649,0,0,0-6.255,2.543,8.648,8.648,0,0,0-2.521,6.264,8.628,8.628,0,0,0,2.514,6.271,8.628,8.628,0,0,0,6.262,2.538,8.62,8.62,0,0,0,6.287-2.522,8.62,8.62,0,0,0,2.523-6.286,8.655,8.655,0,0,0-2.535-6.274,8.655,8.655,0,0,0-6.275-2.533Zm0,13.443a4.336,4.336,0,0,1-3.191-1.366,4.335,4.335,0,0,1-1.166-3.27,4.351,4.351,0,0,1,1.172-3.264,4.349,4.349,0,0,1,3.185-1.37,4.351,4.351,0,0,1,3.187,1.37,4.352,4.352,0,0,1,1.173,3.264,4.337,4.337,0,0,1-1.167,3.27,4.337,4.337,0,0,1-3.193,1.366Z" transform="translate(2283.655 1670.056)" fill="#04081f"/>
        </g>
        <g id="Group_77807" data-name="Group 77807" transform="translate(72.071 2.266)">
          <path id="Path_74893" data-name="Path 74893" d="M-2134.157-1682.593a12.063,12.063,0,0,1,8.4,2.969,9.9,9.9,0,0,1,3.288,7.7,9.944,9.944,0,0,1-3.288,7.719,12.026,12.026,0,0,1-8.4,2.984h-7.521V-1682.6Zm-2.314,17.417h2.314a6.1,6.1,0,0,0,4.689-1.827,6.9,6.9,0,0,0,1.7-4.9,6.9,6.9,0,0,0-1.7-4.9,6.1,6.1,0,0,0-4.689-1.827h-2.314Z" transform="translate(2141.678 1682.593)" fill="#fff"/>
        </g>
      </g>
      <g id="Group_77810" data-name="Group 77810" transform="translate(72.071 2.205)">
        <g id="Group_77809" data-name="Group 77809">
          <path id="Path_74894" data-name="Path 74894" d="M-2134.157-1682.593a12.063,12.063,0,0,1,8.4,2.969,9.9,9.9,0,0,1,3.288,7.7,9.944,9.944,0,0,1-3.288,7.719,12.026,12.026,0,0,1-8.4,2.984h-7.521V-1682.6Zm-2.314,17.417h2.314a6.1,6.1,0,0,0,4.689-1.827,6.9,6.9,0,0,0,1.7-4.9,6.9,6.9,0,0,0-1.7-4.9,6.1,6.1,0,0,0-4.689-1.827h-2.314Z" transform="translate(2141.678 1682.654)" fill="#ff00b8"/>
          <path id="Path_74895" data-name="Path 74895" d="M-2032.775-1682.872v3.958h-7.734v4.6h6.821v3.958h-6.821v4.963h7.734v3.958h-12.94v-21.436Z" transform="translate(2066.604 1682.872)" fill="#ff00b8"/>
          <path id="Path_74896" data-name="Path 74896" d="M-1957.218-1682.593l-6.76,10.718,6.729,10.657h-5.907l-3.928-6.212-3.623,6.212h-5.907l6.729-10.687-6.729-10.688h5.907l3.928,6.242,3.654-6.242Z" transform="translate(2012.543 1682.654)" fill="#ff00b8"/>
        </g>
      </g>
    </g>
  </g>
</svg>
